<?xml version="1.0" encoding="utf-8" ?>
<svg baseProfile="full" height="100%" version="1.1" width="100%" xmlns="http://www.w3.org/2000/svg" xmlns:ev="http://www.w3.org/2001/xml-events" xmlns:xlink="http://www.w3.org/1999/xlink"><defs /><path d="M 200.0 144.764033942 C 239.057726165 160.942273835 266.265295608 200.0 246.856639882 246.856639882" fill="none" stroke="purple" stroke-opacity="0.4" stroke-width="0.34" /><path d="M 200.0 144.764033942 C 239.057726165 160.942273835 218.037242892 200.0 212.754256763 212.754256763" fill="none" stroke="purple" stroke-opacity="0.4" stroke-width="0.34" /><path d="M 200.0 144.764033942 C 239.057726165 160.942273835 266.096137955 200.0 246.737027358 246.737027358" fill="none" stroke="purple" stroke-opacity="0.4" stroke-width="0.34" /><path d="M 200.0 144.764033942 C 239.057726165 160.942273835 209.391756919 200.0 206.640975005 206.640975005" fill="none" stroke="purple" stroke-opacity="0.4" stroke-width="0.34" /><path d="M 200.0 144.764033942 C 239.057726165 160.942273835 312.270847218 200.0 279.387477397 279.387477397" fill="none" stroke="purple" stroke-opacity="0.4" stroke-width="0.34" /><path d="M 200.0 144.764033942 C 239.057726165 160.942273835 286.234351136 200.0 260.976894459 260.976894459" fill="none" stroke="purple" stroke-opacity="0.4" stroke-width="0.34" /><path d="M 200.0 144.764033942 C 239.057726165 160.942273835 263.256330725 200.0 244.728980409 244.728980409" fill="none" stroke="purple" stroke-opacity="0.4" stroke-width="0.34" /><path d="M 200.0 144.764033942 C 239.057726165 160.942273835 263.58097921 200.0 244.958541554 244.958541554" fill="none" stroke="purple" stroke-opacity="0.4" stroke-width="0.34" /><path d="M 200.0 144.764033942 C 239.057726165 160.942273835 253.095033623 200.0 237.543858322 237.543858322" fill="none" stroke="purple" stroke-opacity="0.4" stroke-width="0.34" /><path d="M 200.0 144.764033942 C 239.057726165 160.942273835 243.01868978 200.0 230.418807262 230.418807262" fill="none" stroke="purple" stroke-opacity="0.4" stroke-width="0.34" /><path d="M 200.0 110.325185567 C 263.409669387 136.590330613 266.265295608 200.0 246.856639882 246.856639882" fill="none" stroke="purple" stroke-opacity="0.4" stroke-width="0.34" /><path d="M 200.0 110.325185567 C 263.409669387 136.590330613 292.146228255 200.0 265.15722286 265.15722286" fill="none" stroke="purple" stroke-opacity="0.4" stroke-width="0.34" /><path d="M 200.0 110.325185567 C 263.409669387 136.590330613 218.037242892 200.0 212.754256763 212.754256763" fill="none" stroke="purple" stroke-opacity="0.4" stroke-width="0.34" /><path d="M 200.0 110.325185567 C 263.409669387 136.590330613 334.193364412 200.0 294.889037966 294.889037966" fill="none" stroke="purple" stroke-opacity="0.4" stroke-width="0.34" /><path d="M 200.0 110.325185567 C 263.409669387 136.590330613 240.60438538 200.0 228.711636248 228.711636248" fill="none" stroke="purple" stroke-opacity="0.4" stroke-width="0.34" /><path d="M 200.0 110.325185567 C 263.409669387 136.590330613 286.234351136 200.0 260.976894459 260.976894459" fill="none" stroke="purple" stroke-opacity="0.4" stroke-width="0.34" /><path d="M 200.0 110.325185567 C 263.409669387 136.590330613 225.902802856 200.0 218.316047551 218.316047551" fill="none" stroke="purple" stroke-opacity="0.4" stroke-width="0.34" /><path d="M 200.0 110.325185567 C 263.409669387 136.590330613 253.095033623 200.0 237.543858322 237.543858322" fill="none" stroke="purple" stroke-opacity="0.4" stroke-width="0.34" /><path d="M 200.0 110.325185567 C 263.409669387 136.590330613 298.913803431 200.0 269.942621159 269.942621159" fill="none" stroke="purple" stroke-opacity="0.4" stroke-width="0.34" /><path d="M 200.0 157.094257241 C 230.338941657 169.661058343 236.436800644 200.0 225.76470882 225.76470882" fill="none" stroke="purple" stroke-opacity="0.4" stroke-width="0.34" /><path d="M 200.0 157.094257241 C 230.338941657 169.661058343 334.193364412 200.0 294.889037966 294.889037966" fill="none" stroke="purple" stroke-opacity="0.4" stroke-width="0.34" /><path d="M 200.0 157.094257241 C 230.338941657 169.661058343 282.140597228 200.0 258.082173311 258.082173311" fill="none" stroke="purple" stroke-opacity="0.4" stroke-width="0.34" /><path d="M 200.0 157.094257241 C 230.338941657 169.661058343 225.902802856 200.0 218.316047551 218.316047551" fill="none" stroke="purple" stroke-opacity="0.4" stroke-width="0.34" /><path d="M 200.0 157.094257241 C 230.338941657 169.661058343 263.256330725 200.0 244.728980409 244.728980409" fill="none" stroke="purple" stroke-opacity="0.4" stroke-width="0.34" /><path d="M 200.0 157.094257241 C 230.338941657 169.661058343 221.907366053 200.0 215.490847094 215.490847094" fill="none" stroke="purple" stroke-opacity="0.4" stroke-width="0.34" /><path d="M 200.0 157.094257241 C 230.338941657 169.661058343 243.01868978 200.0 230.418807262 230.418807262" fill="none" stroke="purple" stroke-opacity="0.4" stroke-width="0.34" /><path d="M 200.0 157.094257241 C 230.338941657 169.661058343 327.293720551 200.0 290.010253004 290.010253004" fill="none" stroke="purple" stroke-opacity="0.4" stroke-width="0.34" /><path d="M 200.0 157.094257241 C 230.338941657 169.661058343 296.453254838 200.0 268.202750564 268.202750564" fill="none" stroke="purple" stroke-opacity="0.4" stroke-width="0.34" /><path d="M 200.0 157.094257241 C 230.338941657 169.661058343 295.716212258 200.0 267.681582757 267.681582757" fill="none" stroke="purple" stroke-opacity="0.4" stroke-width="0.34" /><path d="M 200.0 192.170679097 C 205.536165902 194.463834098 266.265295608 200.0 246.856639882 246.856639882" fill="none" stroke="purple" stroke-opacity="0.4" stroke-width="0.34" /><path d="M 200.0 192.170679097 C 205.536165902 194.463834098 292.146228255 200.0 265.15722286 265.15722286" fill="none" stroke="purple" stroke-opacity="0.4" stroke-width="0.34" /><path d="M 200.0 192.170679097 C 205.536165902 194.463834098 240.60438538 200.0 228.711636248 228.711636248" fill="none" stroke="purple" stroke-opacity="0.4" stroke-width="0.34" /><path d="M 200.0 192.170679097 C 205.536165902 194.463834098 239.348711371 200.0 227.823740642 227.823740642" fill="none" stroke="purple" stroke-opacity="0.4" stroke-width="0.34" /><path d="M 200.0 192.170679097 C 205.536165902 194.463834098 286.234351136 200.0 260.976894459 260.976894459" fill="none" stroke="purple" stroke-opacity="0.4" stroke-width="0.34" /><path d="M 200.0 192.170679097 C 205.536165902 194.463834098 225.902802856 200.0 218.316047551 218.316047551" fill="none" stroke="purple" stroke-opacity="0.4" stroke-width="0.34" /><path d="M 200.0 192.170679097 C 205.536165902 194.463834098 327.293720551 200.0 290.010253004 290.010253004" fill="none" stroke="purple" stroke-opacity="0.4" stroke-width="0.34" /><path d="M 200.0 192.170679097 C 205.536165902 194.463834098 205.731410664 200.0 204.052719346 204.052719346" fill="none" stroke="purple" stroke-opacity="0.4" stroke-width="0.34" /><path d="M 200.0 192.170679097 C 205.536165902 194.463834098 298.913803431 200.0 269.942621159 269.942621159" fill="none" stroke="purple" stroke-opacity="0.4" stroke-width="0.34" /><path d="M 200.0 164.498163034 C 225.103589663 174.896410337 266.265295608 200.0 246.856639882 246.856639882" fill="none" stroke="purple" stroke-opacity="0.4" stroke-width="0.34" /><path d="M 200.0 164.498163034 C 225.103589663 174.896410337 266.096137955 200.0 246.737027358 246.737027358" fill="none" stroke="purple" stroke-opacity="0.4" stroke-width="0.34" /><path d="M 200.0 164.498163034 C 225.103589663 174.896410337 334.193364412 200.0 294.889037966 294.889037966" fill="none" stroke="purple" stroke-opacity="0.4" stroke-width="0.34" /><path d="M 200.0 164.498163034 C 225.103589663 174.896410337 240.60438538 200.0 228.711636248 228.711636248" fill="none" stroke="purple" stroke-opacity="0.4" stroke-width="0.34" /><path d="M 200.0 164.498163034 C 225.103589663 174.896410337 209.391756919 200.0 206.640975005 206.640975005" fill="none" stroke="purple" stroke-opacity="0.4" stroke-width="0.34" /><path d="M 200.0 164.498163034 C 225.103589663 174.896410337 225.902802856 200.0 218.316047551 218.316047551" fill="none" stroke="purple" stroke-opacity="0.4" stroke-width="0.34" /><path d="M 200.0 164.498163034 C 225.103589663 174.896410337 247.146456403 200.0 233.337579031 233.337579031" fill="none" stroke="purple" stroke-opacity="0.4" stroke-width="0.34" /><path d="M 200.0 164.498163034 C 225.103589663 174.896410337 243.01868978 200.0 230.418807262 230.418807262" fill="none" stroke="purple" stroke-opacity="0.4" stroke-width="0.34" /><path d="M 200.0 164.498163034 C 225.103589663 174.896410337 205.731410664 200.0 204.052719346 204.052719346" fill="none" stroke="purple" stroke-opacity="0.4" stroke-width="0.34" /><path d="M 200.0 154.322487202 C 232.298879047 167.701120953 236.436800644 200.0 225.76470882 225.76470882" fill="none" stroke="purple" stroke-opacity="0.4" stroke-width="0.34" /><path d="M 200.0 154.322487202 C 232.298879047 167.701120953 292.146228255 200.0 265.15722286 265.15722286" fill="none" stroke="purple" stroke-opacity="0.4" stroke-width="0.34" /><path d="M 200.0 154.322487202 C 232.298879047 167.701120953 247.146456403 200.0 233.337579031 233.337579031" fill="none" stroke="purple" stroke-opacity="0.4" stroke-width="0.34" /><path d="M 200.0 166.853324455 C 223.438239052 176.561760948 292.146228255 200.0 265.15722286 265.15722286" fill="none" stroke="purple" stroke-opacity="0.4" stroke-width="0.34" /><path d="M 200.0 166.853324455 C 223.438239052 176.561760948 312.270847218 200.0 279.387477397 279.387477397" fill="none" stroke="purple" stroke-opacity="0.4" stroke-width="0.34" /><path d="M 200.0 166.853324455 C 223.438239052 176.561760948 286.513744475 200.0 261.174455384 261.174455384" fill="none" stroke="purple" stroke-opacity="0.4" stroke-width="0.34" /><path d="M 200.0 166.853324455 C 223.438239052 176.561760948 286.234351136 200.0 260.976894459 260.976894459" fill="none" stroke="purple" stroke-opacity="0.4" stroke-width="0.34" /><path d="M 200.0 166.853324455 C 223.438239052 176.561760948 282.140597228 200.0 258.082173311 258.082173311" fill="none" stroke="purple" stroke-opacity="0.4" stroke-width="0.34" /><path d="M 200.0 166.853324455 C 223.438239052 176.561760948 225.902802856 200.0 218.316047551 218.316047551" fill="none" stroke="purple" stroke-opacity="0.4" stroke-width="0.34" /><path d="M 200.0 166.853324455 C 223.438239052 176.561760948 221.907366053 200.0 215.490847094 215.490847094" fill="none" stroke="purple" stroke-opacity="0.4" stroke-width="0.34" /><path d="M 200.0 166.853324455 C 223.438239052 176.561760948 205.731410664 200.0 204.052719346 204.052719346" fill="none" stroke="purple" stroke-opacity="0.4" stroke-width="0.34" /><path d="M 200.0 118.817626058 C 257.404607127 142.595392873 266.096137955 200.0 246.737027358 246.737027358" fill="none" stroke="purple" stroke-opacity="0.4" stroke-width="0.34" /><path d="M 200.0 118.817626058 C 257.404607127 142.595392873 209.391756919 200.0 206.640975005 206.640975005" fill="none" stroke="purple" stroke-opacity="0.4" stroke-width="0.34" /><path d="M 200.0 118.817626058 C 257.404607127 142.595392873 225.902802856 200.0 218.316047551 218.316047551" fill="none" stroke="purple" stroke-opacity="0.4" stroke-width="0.34" /><path d="M 200.0 118.817626058 C 257.404607127 142.595392873 221.907366053 200.0 215.490847094 215.490847094" fill="none" stroke="purple" stroke-opacity="0.4" stroke-width="0.34" /><path d="M 200.0 118.817626058 C 257.404607127 142.595392873 253.095033623 200.0 237.543858322 237.543858322" fill="none" stroke="purple" stroke-opacity="0.4" stroke-width="0.34" /><path d="M 200.0 118.817626058 C 257.404607127 142.595392873 327.293720551 200.0 290.010253004 290.010253004" fill="none" stroke="purple" stroke-opacity="0.4" stroke-width="0.34" /><path d="M 200.0 118.817626058 C 257.404607127 142.595392873 295.716212258 200.0 267.681582757 267.681582757" fill="none" stroke="purple" stroke-opacity="0.4" stroke-width="0.34" /><path d="M 200.0 116.351494932 C 259.148425169 140.851574831 218.037242892 200.0 212.754256763 212.754256763" fill="none" stroke="purple" stroke-opacity="0.4" stroke-width="0.34" /><path d="M 200.0 116.351494932 C 259.148425169 140.851574831 266.096137955 200.0 246.737027358 246.737027358" fill="none" stroke="purple" stroke-opacity="0.4" stroke-width="0.34" /><path d="M 200.0 116.351494932 C 259.148425169 140.851574831 283.894869534 200.0 259.322631154 259.322631154" fill="none" stroke="purple" stroke-opacity="0.4" stroke-width="0.34" /><path d="M 200.0 116.351494932 C 259.148425169 140.851574831 334.193364412 200.0 294.889037966 294.889037966" fill="none" stroke="purple" stroke-opacity="0.4" stroke-width="0.34" /><path d="M 200.0 116.351494932 C 259.148425169 140.851574831 240.60438538 200.0 228.711636248 228.711636248" fill="none" stroke="purple" stroke-opacity="0.4" stroke-width="0.34" /><path d="M 200.0 116.351494932 C 259.148425169 140.851574831 325.391758348 200.0 288.665362633 288.665362633" fill="none" stroke="purple" stroke-opacity="0.4" stroke-width="0.34" /><path d="M 200.0 116.351494932 C 259.148425169 140.851574831 282.140597228 200.0 258.082173311 258.082173311" fill="none" stroke="purple" stroke-opacity="0.4" stroke-width="0.34" /><path d="M 200.0 116.351494932 C 259.148425169 140.851574831 263.256330725 200.0 244.728980409 244.728980409" fill="none" stroke="purple" stroke-opacity="0.4" stroke-width="0.34" /><path d="M 200.0 116.351494932 C 259.148425169 140.851574831 221.907366053 200.0 215.490847094 215.490847094" fill="none" stroke="purple" stroke-opacity="0.4" stroke-width="0.34" /><path d="M 200.0 116.351494932 C 259.148425169 140.851574831 253.095033623 200.0 237.543858322 237.543858322" fill="none" stroke="purple" stroke-opacity="0.4" stroke-width="0.34" /><path d="M 200.0 116.351494932 C 259.148425169 140.851574831 327.293720551 200.0 290.010253004 290.010253004" fill="none" stroke="purple" stroke-opacity="0.4" stroke-width="0.34" /><path d="M 200.0 116.351494932 C 259.148425169 140.851574831 296.453254838 200.0 268.202750564 268.202750564" fill="none" stroke="purple" stroke-opacity="0.4" stroke-width="0.34" /><path d="M 200.0 116.351494932 C 259.148425169 140.851574831 295.716212258 200.0 267.681582757 267.681582757" fill="none" stroke="purple" stroke-opacity="0.4" stroke-width="0.34" /><path d="M 200.0 176.672481383 C 216.495046603 183.504953397 325.391758348 200.0 288.665362633 288.665362633" fill="none" stroke="purple" stroke-opacity="0.4" stroke-width="0.34" /><path d="M 200.0 176.672481383 C 216.495046603 183.504953397 239.348711371 200.0 227.823740642 227.823740642" fill="none" stroke="purple" stroke-opacity="0.4" stroke-width="0.34" /><path d="M 200.0 176.672481383 C 216.495046603 183.504953397 282.140597228 200.0 258.082173311 258.082173311" fill="none" stroke="purple" stroke-opacity="0.4" stroke-width="0.34" /><path d="M 200.0 176.672481383 C 216.495046603 183.504953397 225.902802856 200.0 218.316047551 218.316047551" fill="none" stroke="purple" stroke-opacity="0.4" stroke-width="0.34" /><path d="M 200.0 176.672481383 C 216.495046603 183.504953397 263.256330725 200.0 244.728980409 244.728980409" fill="none" stroke="purple" stroke-opacity="0.4" stroke-width="0.34" /><path d="M 200.0 176.672481383 C 216.495046603 183.504953397 221.907366053 200.0 215.490847094 215.490847094" fill="none" stroke="purple" stroke-opacity="0.4" stroke-width="0.34" /><path d="M 200.0 176.672481383 C 216.495046603 183.504953397 247.146456403 200.0 233.337579031 233.337579031" fill="none" stroke="purple" stroke-opacity="0.4" stroke-width="0.34" /><path d="M 200.0 176.672481383 C 216.495046603 183.504953397 298.913803431 200.0 269.942621159 269.942621159" fill="none" stroke="purple" stroke-opacity="0.4" stroke-width="0.34" /><path d="M 200.0 121.00585906 C 255.857292733 144.142707267 240.60438538 200.0 228.711636248 228.711636248" fill="none" stroke="purple" stroke-opacity="0.4" stroke-width="0.34" /><path d="M 200.0 121.00585906 C 255.857292733 144.142707267 263.256330725 200.0 244.728980409 244.728980409" fill="none" stroke="purple" stroke-opacity="0.4" stroke-width="0.34" /><path d="M 200.0 121.00585906 C 255.857292733 144.142707267 247.146456403 200.0 233.337579031 233.337579031" fill="none" stroke="purple" stroke-opacity="0.4" stroke-width="0.34" /><path d="M 200.0 121.00585906 C 255.857292733 144.142707267 327.293720551 200.0 290.010253004 290.010253004" fill="none" stroke="purple" stroke-opacity="0.4" stroke-width="0.34" /><path d="M 200.0 121.00585906 C 255.857292733 144.142707267 296.453254838 200.0 268.202750564 268.202750564" fill="none" stroke="purple" stroke-opacity="0.4" stroke-width="0.34" /><path d="M 200.0 121.00585906 C 255.857292733 144.142707267 298.913803431 200.0 269.942621159 269.942621159" fill="none" stroke="purple" stroke-opacity="0.4" stroke-width="0.34" /><path d="M 200.0 121.00585906 C 255.857292733 144.142707267 295.716212258 200.0 267.681582757 267.681582757" fill="none" stroke="purple" stroke-opacity="0.4" stroke-width="0.34" /><path d="M 200.0 150.372589305 C 235.091878635 164.908121365 286.234351136 200.0 260.976894459 260.976894459" fill="none" stroke="purple" stroke-opacity="0.4" stroke-width="0.34" /><path d="M 200.0 150.372589305 C 235.091878635 164.908121365 282.140597228 200.0 258.082173311 258.082173311" fill="none" stroke="purple" stroke-opacity="0.4" stroke-width="0.34" /><path d="M 200.0 150.372589305 C 235.091878635 164.908121365 221.907366053 200.0 215.490847094 215.490847094" fill="none" stroke="purple" stroke-opacity="0.4" stroke-width="0.34" /><path d="M 200.0 150.372589305 C 235.091878635 164.908121365 253.095033623 200.0 237.543858322 237.543858322" fill="none" stroke="purple" stroke-opacity="0.4" stroke-width="0.34" /><path d="M 200.0 150.372589305 C 235.091878635 164.908121365 327.293720551 200.0 290.010253004 290.010253004" fill="none" stroke="purple" stroke-opacity="0.4" stroke-width="0.34" /><path d="M 200.0 150.372589305 C 235.091878635 164.908121365 298.913803431 200.0 269.942621159 269.942621159" fill="none" stroke="purple" stroke-opacity="0.4" stroke-width="0.34" /><path d="M 200.0 193.143069247 C 204.848582233 195.151417767 286.513744475 200.0 261.174455384 261.174455384" fill="none" stroke="purple" stroke-opacity="0.4" stroke-width="0.34" /><path d="M 200.0 193.143069247 C 204.848582233 195.151417767 286.234351136 200.0 260.976894459 260.976894459" fill="none" stroke="purple" stroke-opacity="0.4" stroke-width="0.34" /><path d="M 200.0 193.143069247 C 204.848582233 195.151417767 263.256330725 200.0 244.728980409 244.728980409" fill="none" stroke="purple" stroke-opacity="0.4" stroke-width="0.34" /><path d="M 200.0 193.143069247 C 204.848582233 195.151417767 247.146456403 200.0 233.337579031 233.337579031" fill="none" stroke="purple" stroke-opacity="0.4" stroke-width="0.34" /><path d="M 200.0 193.143069247 C 204.848582233 195.151417767 263.58097921 200.0 244.958541554 244.958541554" fill="none" stroke="purple" stroke-opacity="0.4" stroke-width="0.34" /><path d="M 200.0 193.143069247 C 204.848582233 195.151417767 205.731410664 200.0 204.052719346 204.052719346" fill="none" stroke="purple" stroke-opacity="0.4" stroke-width="0.34" /><path d="M 200.0 192.442283403 C 205.344112656 194.655887344 243.01868978 200.0 230.418807262 230.418807262" fill="none" stroke="purple" stroke-opacity="0.4" stroke-width="0.34" /><path d="M 200.0 192.442283403 C 205.344112656 194.655887344 296.453254838 200.0 268.202750564 268.202750564" fill="none" stroke="purple" stroke-opacity="0.4" stroke-width="0.34" /><path d="M 200.0 104.763663005 C 267.342259705 132.657740295 286.234351136 200.0 260.976894459 260.976894459" fill="none" stroke="purple" stroke-opacity="0.4" stroke-width="0.34" /><path d="M 200.0 104.763663005 C 267.342259705 132.657740295 263.256330725 200.0 244.728980409 244.728980409" fill="none" stroke="purple" stroke-opacity="0.4" stroke-width="0.34" /><path d="M 200.0 104.763663005 C 267.342259705 132.657740295 263.58097921 200.0 244.958541554 244.958541554" fill="none" stroke="purple" stroke-opacity="0.4" stroke-width="0.34" /><path d="M 200.0 104.763663005 C 267.342259705 132.657740295 243.01868978 200.0 230.418807262 230.418807262" fill="none" stroke="purple" stroke-opacity="0.4" stroke-width="0.34" /><path d="M 200.0 167.810130834 C 222.761674773 177.238325227 286.234351136 200.0 260.976894459 260.976894459" fill="none" stroke="purple" stroke-opacity="0.4" stroke-width="0.34" /><path d="M 200.0 167.810130834 C 222.761674773 177.238325227 263.256330725 200.0 244.728980409 244.728980409" fill="none" stroke="purple" stroke-opacity="0.4" stroke-width="0.34" /><path d="M 200.0 167.810130834 C 222.761674773 177.238325227 327.293720551 200.0 290.010253004 290.010253004" fill="none" stroke="purple" stroke-opacity="0.4" stroke-width="0.34" /><path d="M 200.0 167.810130834 C 222.761674773 177.238325227 205.731410664 200.0 204.052719346 204.052719346" fill="none" stroke="purple" stroke-opacity="0.4" stroke-width="0.34" /><path d="M 200.0 167.810130834 C 222.761674773 177.238325227 296.453254838 200.0 268.202750564 268.202750564" fill="none" stroke="purple" stroke-opacity="0.4" stroke-width="0.34" /><path d="M 200.0 167.810130834 C 222.761674773 177.238325227 295.716212258 200.0 267.681582757 267.681582757" fill="none" stroke="purple" stroke-opacity="0.4" stroke-width="0.34" /><path d="M 200.0 167.461939096 C 223.007883512 176.992116488 296.453254838 200.0 268.202750564 268.202750564" fill="none" stroke="purple" stroke-opacity="0.4" stroke-width="0.34" /><path d="M 200.0 167.461939096 C 223.007883512 176.992116488 295.716212258 200.0 267.681582757 267.681582757" fill="none" stroke="purple" stroke-opacity="0.4" stroke-width="0.34" /><path d="M 200.0 106.992827089 C 265.766002664 134.233997336 263.256330725 200.0 244.728980409 244.728980409" fill="none" stroke="purple" stroke-opacity="0.4" stroke-width="0.34" /><path d="M 200.0 139.13369306 C 243.038978383 156.961021617 225.902802856 200.0 218.316047551 218.316047551" fill="none" stroke="purple" stroke-opacity="0.4" stroke-width="0.34" /><path d="M 200.0 139.13369306 C 243.038978383 156.961021617 221.907366053 200.0 215.490847094 215.490847094" fill="none" stroke="purple" stroke-opacity="0.4" stroke-width="0.34" /><path d="M 200.0 139.13369306 C 243.038978383 156.961021617 247.146456403 200.0 233.337579031 233.337579031" fill="none" stroke="purple" stroke-opacity="0.4" stroke-width="0.34" /><path d="M 200.0 139.13369306 C 243.038978383 156.961021617 253.095033623 200.0 237.543858322 237.543858322" fill="none" stroke="purple" stroke-opacity="0.4" stroke-width="0.34" /><path d="M 200.0 139.13369306 C 243.038978383 156.961021617 205.731410664 200.0 204.052719346 204.052719346" fill="none" stroke="purple" stroke-opacity="0.4" stroke-width="0.34" /><path d="M 200.0 118.192562185 C 257.84659403 142.15340597 253.095033623 200.0 237.543858322 237.543858322" fill="none" stroke="purple" stroke-opacity="0.4" stroke-width="0.34" /><path d="M 200.0 118.192562185 C 257.84659403 142.15340597 327.293720551 200.0 290.010253004 290.010253004" fill="none" stroke="purple" stroke-opacity="0.4" stroke-width="0.34" /><path d="M 200.0 118.192562185 C 257.84659403 142.15340597 296.453254838 200.0 268.202750564 268.202750564" fill="none" stroke="purple" stroke-opacity="0.4" stroke-width="0.34" /><path d="M 200.0 159.428038753 C 228.688708924 171.311291076 247.146456403 200.0 233.337579031 233.337579031" fill="none" stroke="purple" stroke-opacity="0.4" stroke-width="0.34" /><path d="M 200.0 159.428038753 C 228.688708924 171.311291076 263.58097921 200.0 244.958541554 244.958541554" fill="none" stroke="purple" stroke-opacity="0.4" stroke-width="0.34" /><path d="M 200.0 159.428038753 C 228.688708924 171.311291076 253.095033623 200.0 237.543858322 237.543858322" fill="none" stroke="purple" stroke-opacity="0.4" stroke-width="0.34" /><path d="M 200.0 159.428038753 C 228.688708924 171.311291076 205.731410664 200.0 204.052719346 204.052719346" fill="none" stroke="purple" stroke-opacity="0.4" stroke-width="0.34" /><path d="M 200.0 159.428038753 C 228.688708924 171.311291076 296.453254838 200.0 268.202750564 268.202750564" fill="none" stroke="purple" stroke-opacity="0.4" stroke-width="0.34" /><path d="M 200.0 159.428038753 C 228.688708924 171.311291076 298.913803431 200.0 269.942621159 269.942621159" fill="none" stroke="purple" stroke-opacity="0.4" stroke-width="0.34" /><path d="M 200.0 130.105957835 C 249.42255118 150.57744882 253.095033623 200.0 237.543858322 237.543858322" fill="none" stroke="purple" stroke-opacity="0.4" stroke-width="0.34" /><path d="M 200.0 130.105957835 C 249.42255118 150.57744882 327.293720551 200.0 290.010253004 290.010253004" fill="none" stroke="purple" stroke-opacity="0.4" stroke-width="0.34" /><path d="M 200.0 130.105957835 C 249.42255118 150.57744882 296.453254838 200.0 268.202750564 268.202750564" fill="none" stroke="purple" stroke-opacity="0.4" stroke-width="0.34" /><path d="M 200.0 118.487745249 C 257.637868084 142.362131916 243.01868978 200.0 230.418807262 230.418807262" fill="none" stroke="purple" stroke-opacity="0.4" stroke-width="0.34" /><path d="M 200.0 118.487745249 C 257.637868084 142.362131916 327.293720551 200.0 290.010253004 290.010253004" fill="none" stroke="purple" stroke-opacity="0.4" stroke-width="0.34" /><path d="M 200.0 118.487745249 C 257.637868084 142.362131916 205.731410664 200.0 204.052719346 204.052719346" fill="none" stroke="purple" stroke-opacity="0.4" stroke-width="0.34" /><path d="M 200.0 118.487745249 C 257.637868084 142.362131916 296.453254838 200.0 268.202750564 268.202750564" fill="none" stroke="purple" stroke-opacity="0.4" stroke-width="0.34" /><path d="M 200.0 118.487745249 C 257.637868084 142.362131916 295.716212258 200.0 267.681582757 267.681582757" fill="none" stroke="purple" stroke-opacity="0.4" stroke-width="0.34" /><path d="M 200.0 161.500283354 C 227.223410714 172.776589286 298.913803431 200.0 269.942621159 269.942621159" fill="none" stroke="purple" stroke-opacity="0.4" stroke-width="0.34" /><path d="M 200.0 161.500283354 C 227.223410714 172.776589286 295.716212258 200.0 267.681582757 267.681582757" fill="none" stroke="purple" stroke-opacity="0.4" stroke-width="0.34" /><path d="M 200.0 189.906496148 C 207.13718502 192.86281498 295.716212258 200.0 267.681582757 267.681582757" fill="none" stroke="purple" stroke-opacity="0.4" stroke-width="0.34" /><path d="M 200.0 120.28522744 C 256.366856238 143.633143762 295.716212258 200.0 267.681582757 267.681582757" fill="none" stroke="purple" stroke-opacity="0.4" stroke-width="0.34" /><path d="M 200.0 171.780343557 C 219.954310434 180.045689566 295.716212258 200.0 267.681582757 267.681582757" fill="none" stroke="purple" stroke-opacity="0.4" stroke-width="0.34" /><path d="M 200.0 157.659692919 C 229.939118255 170.060881745 295.716212258 200.0 267.681582757 267.681582757" fill="none" stroke="purple" stroke-opacity="0.4" stroke-width="0.34" /><path d="M 200.0 144.764033942 C 160.942273835 160.942273835 67.2182614905 164.591536397 81.0715675575 268.853302993" fill="none" stroke="red" stroke-opacity="0.4" stroke-width="0.34" /><path d="M 200.0 144.764033942 C 160.942273835 160.942273835 46.3123748734 159.0166333 62.3468215788 279.693945402" fill="none" stroke="red" stroke-opacity="0.4" stroke-width="0.34" /><path d="M 200.0 144.764033942 C 160.942273835 160.942273835 71.5513288846 165.747021036 84.9525599186 266.606412679" fill="none" stroke="red" stroke-opacity="0.4" stroke-width="0.34" /><path d="M 200.0 144.764033942 C 160.942273835 160.942273835 171.279337972 192.341156793 174.275805152 214.892954912" fill="none" stroke="red" stroke-opacity="0.4" stroke-width="0.34" /><path d="M 200.0 144.764033942 C 160.942273835 160.942273835 67.1989977303 164.586399395 81.0543136126 268.863292119" fill="none" stroke="red" stroke-opacity="0.4" stroke-width="0.34" /><path d="M 200.0 144.764033942 C 160.942273835 160.942273835 49.3965620874 159.839083223 65.1092311905 278.094655627" fill="none" stroke="red" stroke-opacity="0.4" stroke-width="0.34" /><path d="M 200.0 144.764033942 C 160.942273835 160.942273835 101.742312049 173.79794988 111.993675225 250.951030133" fill="none" stroke="red" stroke-opacity="0.4" stroke-width="0.34" /><path d="M 200.0 144.764033942 C 160.942273835 160.942273835 61.4343197712 163.049151939 75.891072636 271.852536895" fill="none" stroke="red" stroke-opacity="0.4" stroke-width="0.34" /><path d="M 200.0 144.764033942 C 160.942273835 160.942273835 66.785581469 164.476155058 80.6840296529 269.077667043" fill="none" stroke="red" stroke-opacity="0.4" stroke-width="0.34" /><path d="M 200.0 144.764033942 C 160.942273835 160.942273835 185.350255475 196.09340146 186.878683985 207.596551377" fill="none" stroke="red" stroke-opacity="0.4" stroke-width="0.34" /><path d="M 200.0 144.764033942 C 160.942273835 160.942273835 116.715649103 177.790839761 125.404822904 243.186681477" fill="none" stroke="red" stroke-opacity="0.4" stroke-width="0.34" /><path d="M 200.0 144.764033942 C 160.942273835 160.942273835 132.03470514 181.875921371 139.125620218 235.243061979" fill="none" stroke="red" stroke-opacity="0.4" stroke-width="0.34" /><path d="M 200.0 110.325185567 C 136.590330613 136.590330613 15.8746763787 150.899913701 35.0847311003 295.477260942" fill="none" stroke="red" stroke-opacity="0.4" stroke-width="0.34" /><path d="M 200.0 110.325185567 C 136.590330613 136.590330613 9.77484189453 149.273291172 29.6213009517 298.640299449" fill="none" stroke="red" stroke-opacity="0.4" stroke-width="0.34" /><path d="M 200.0 110.325185567 C 136.590330613 136.590330613 61.4343197712 163.049151939 75.891072636 271.852536895" fill="none" stroke="red" stroke-opacity="0.4" stroke-width="0.34" /><path d="M 200.0 110.325185567 C 136.590330613 136.590330613 132.03470514 181.875921371 139.125620218 235.243061979" fill="none" stroke="red" stroke-opacity="0.4" stroke-width="0.34" /><path d="M 200.0 157.094257241 C 169.661058343 169.661058343 67.2182614905 164.591536397 81.0715675575 268.853302993" fill="none" stroke="red" stroke-opacity="0.4" stroke-width="0.34" /><path d="M 200.0 157.094257241 C 169.661058343 169.661058343 67.1989977303 164.586399395 81.0543136126 268.863292119" fill="none" stroke="red" stroke-opacity="0.4" stroke-width="0.34" /><path d="M 200.0 157.094257241 C 169.661058343 169.661058343 152.691443678 187.384384981 157.627212088 224.531614054" fill="none" stroke="red" stroke-opacity="0.4" stroke-width="0.34" /><path d="M 200.0 157.094257241 C 169.661058343 169.661058343 49.3965620874 159.839083223 65.1092311905 278.094655627" fill="none" stroke="red" stroke-opacity="0.4" stroke-width="0.34" /><path d="M 200.0 157.094257241 C 169.661058343 169.661058343 52.5899117404 160.690643131 67.96941417 276.438760217" fill="none" stroke="red" stroke-opacity="0.4" stroke-width="0.34" /><path d="M 200.0 157.094257241 C 169.661058343 169.661058343 105.449261225 174.78646966 115.313873165 249.028810273" fill="none" stroke="red" stroke-opacity="0.4" stroke-width="0.34" /><path d="M 200.0 157.094257241 C 169.661058343 169.661058343 9.77484189453 149.273291172 29.6213009517 298.640299449" fill="none" stroke="red" stroke-opacity="0.4" stroke-width="0.34" /><path d="M 200.0 157.094257241 C 169.661058343 169.661058343 185.350255475 196.09340146 186.878683985 207.596551377" fill="none" stroke="red" stroke-opacity="0.4" stroke-width="0.34" /><path d="M 200.0 157.094257241 C 169.661058343 169.661058343 132.03470514 181.875921371 139.125620218 235.243061979" fill="none" stroke="red" stroke-opacity="0.4" stroke-width="0.34" /><path d="M 200.0 192.170679097 C 194.463834098 194.463834098 123.627139988 179.633903997 131.595228196 239.602762623" fill="none" stroke="red" stroke-opacity="0.4" stroke-width="0.34" /><path d="M 200.0 192.170679097 C 194.463834098 194.463834098 196.09890356 198.959707616 196.505910454 202.022893948" fill="none" stroke="red" stroke-opacity="0.4" stroke-width="0.34" /><path d="M 200.0 192.170679097 C 194.463834098 194.463834098 52.5899117404 160.690643131 67.96941417 276.438760217" fill="none" stroke="red" stroke-opacity="0.4" stroke-width="0.34" /><path d="M 200.0 192.170679097 C 194.463834098 194.463834098 67.0341155165 164.542430804 80.9066337927 268.948790962" fill="none" stroke="red" stroke-opacity="0.4" stroke-width="0.34" /><path d="M 200.0 192.170679097 C 194.463834098 194.463834098 17.6119274685 151.363180658 36.6407323335 294.576418123" fill="none" stroke="red" stroke-opacity="0.4" stroke-width="0.34" /><path d="M 200.0 192.170679097 C 194.463834098 194.463834098 37.66570345 156.710854253 54.6022695811 284.1776334" fill="none" stroke="red" stroke-opacity="0.4" stroke-width="0.34" /><path d="M 200.0 192.170679097 C 194.463834098 194.463834098 28.7522514878 154.33393373 46.6187706345 288.799659106" fill="none" stroke="red" stroke-opacity="0.4" stroke-width="0.34" /><path d="M 200.0 192.170679097 C 194.463834098 194.463834098 132.03470514 181.875921371 139.125620218 235.243061979" fill="none" stroke="red" stroke-opacity="0.4" stroke-width="0.34" /><path d="M 200.0 164.498163034 C 174.896410337 174.896410337 79.7248139813 167.926617062 92.2732937864 262.368093071" fill="none" stroke="red" stroke-opacity="0.4" stroke-width="0.34" /><path d="M 200.0 164.498163034 C 174.896410337 174.896410337 123.627139988 179.633903997 131.595228196 239.602762623" fill="none" stroke="red" stroke-opacity="0.4" stroke-width="0.34" /><path d="M 200.0 164.498163034 C 174.896410337 174.896410337 46.3123748734 159.0166333 62.3468215788 279.693945402" fill="none" stroke="red" stroke-opacity="0.4" stroke-width="0.34" /><path d="M 200.0 164.498163034 C 174.896410337 174.896410337 71.5513288846 165.747021036 84.9525599186 266.606412679" fill="none" stroke="red" stroke-opacity="0.4" stroke-width="0.34" /><path d="M 200.0 164.498163034 C 174.896410337 174.896410337 196.09890356 198.959707616 196.505910454 202.022893948" fill="none" stroke="red" stroke-opacity="0.4" stroke-width="0.34" /><path d="M 200.0 164.498163034 C 174.896410337 174.896410337 152.691443678 187.384384981 157.627212088 224.531614054" fill="none" stroke="red" stroke-opacity="0.4" stroke-width="0.34" /><path d="M 200.0 164.498163034 C 174.896410337 174.896410337 169.68863868 191.916970315 172.851065761 215.717804033" fill="none" stroke="red" stroke-opacity="0.4" stroke-width="0.34" /><path d="M 200.0 164.498163034 C 174.896410337 174.896410337 154.212077095 187.789887225 158.989195676 223.74309724" fill="none" stroke="red" stroke-opacity="0.4" stroke-width="0.34" /><path d="M 200.0 164.498163034 C 174.896410337 174.896410337 61.4343197712 163.049151939 75.891072636 271.852536895" fill="none" stroke="red" stroke-opacity="0.4" stroke-width="0.34" /><path d="M 200.0 164.498163034 C 174.896410337 174.896410337 185.350255475 196.09340146 186.878683985 207.596551377" fill="none" stroke="red" stroke-opacity="0.4" stroke-width="0.34" /><path d="M 200.0 164.498163034 C 174.896410337 174.896410337 116.715649103 177.790839761 125.404822904 243.186681477" fill="none" stroke="red" stroke-opacity="0.4" stroke-width="0.34" /><path d="M 200.0 154.322487202 C 167.701120953 167.701120953 67.1989977303 164.586399395 81.0543136126 268.863292119" fill="none" stroke="red" stroke-opacity="0.4" stroke-width="0.34" /><path d="M 200.0 154.322487202 C 167.701120953 167.701120953 101.742312049 173.79794988 111.993675225 250.951030133" fill="none" stroke="red" stroke-opacity="0.4" stroke-width="0.34" /><path d="M 200.0 154.322487202 C 167.701120953 167.701120953 169.68863868 191.916970315 172.851065761 215.717804033" fill="none" stroke="red" stroke-opacity="0.4" stroke-width="0.34" /><path d="M 200.0 154.322487202 C 167.701120953 167.701120953 67.0341155165 164.542430804 80.9066337927 268.948790962" fill="none" stroke="red" stroke-opacity="0.4" stroke-width="0.34" /><path d="M 200.0 154.322487202 C 167.701120953 167.701120953 37.66570345 156.710854253 54.6022695811 284.1776334" fill="none" stroke="red" stroke-opacity="0.4" stroke-width="0.34" /><path d="M 200.0 154.322487202 C 167.701120953 167.701120953 116.715649103 177.790839761 125.404822904 243.186681477" fill="none" stroke="red" stroke-opacity="0.4" stroke-width="0.34" /><path d="M 200.0 166.853324455 C 176.561760948 176.561760948 46.3123748734 159.0166333 62.3468215788 279.693945402" fill="none" stroke="red" stroke-opacity="0.4" stroke-width="0.34" /><path d="M 200.0 166.853324455 C 176.561760948 176.561760948 196.09890356 198.959707616 196.505910454 202.022893948" fill="none" stroke="red" stroke-opacity="0.4" stroke-width="0.34" /><path d="M 200.0 166.853324455 C 176.561760948 176.561760948 52.5899117404 160.690643131 67.96941417 276.438760217" fill="none" stroke="red" stroke-opacity="0.4" stroke-width="0.34" /><path d="M 200.0 166.853324455 C 176.561760948 176.561760948 105.449261225 174.78646966 115.313873165 249.028810273" fill="none" stroke="red" stroke-opacity="0.4" stroke-width="0.34" /><path d="M 200.0 166.853324455 C 176.561760948 176.561760948 17.6119274685 151.363180658 36.6407323335 294.576418123" fill="none" stroke="red" stroke-opacity="0.4" stroke-width="0.34" /><path d="M 200.0 166.853324455 C 176.561760948 176.561760948 61.4343197712 163.049151939 75.891072636 271.852536895" fill="none" stroke="red" stroke-opacity="0.4" stroke-width="0.34" /><path d="M 200.0 166.853324455 C 176.561760948 176.561760948 66.785581469 164.476155058 80.6840296529 269.077667043" fill="none" stroke="red" stroke-opacity="0.4" stroke-width="0.34" /><path d="M 200.0 166.853324455 C 176.561760948 176.561760948 116.650641204 177.773504321 125.346597371 243.220390996" fill="none" stroke="red" stroke-opacity="0.4" stroke-width="0.34" /><path d="M 200.0 166.853324455 C 176.561760948 176.561760948 132.03470514 181.875921371 139.125620218 235.243061979" fill="none" stroke="red" stroke-opacity="0.4" stroke-width="0.34" /><path d="M 200.0 118.817626058 C 142.595392873 142.595392873 123.627139988 179.633903997 131.595228196 239.602762623" fill="none" stroke="red" stroke-opacity="0.4" stroke-width="0.34" /><path d="M 200.0 118.817626058 C 142.595392873 142.595392873 196.09890356 198.959707616 196.505910454 202.022893948" fill="none" stroke="red" stroke-opacity="0.4" stroke-width="0.34" /><path d="M 200.0 118.817626058 C 142.595392873 142.595392873 171.279337972 192.341156793 174.275805152 214.892954912" fill="none" stroke="red" stroke-opacity="0.4" stroke-width="0.34" /><path d="M 200.0 118.817626058 C 142.595392873 142.595392873 101.742312049 173.79794988 111.993675225 250.951030133" fill="none" stroke="red" stroke-opacity="0.4" stroke-width="0.34" /><path d="M 200.0 118.817626058 C 142.595392873 142.595392873 105.449261225 174.78646966 115.313873165 249.028810273" fill="none" stroke="red" stroke-opacity="0.4" stroke-width="0.34" /><path d="M 200.0 118.817626058 C 142.595392873 142.595392873 70.9922451594 165.597932043 84.451806187 266.896322734" fill="none" stroke="red" stroke-opacity="0.4" stroke-width="0.34" /><path d="M 200.0 118.817626058 C 142.595392873 142.595392873 17.6119274685 151.363180658 36.6407323335 294.576418123" fill="none" stroke="red" stroke-opacity="0.4" stroke-width="0.34" /><path d="M 200.0 118.817626058 C 142.595392873 142.595392873 61.4343197712 163.049151939 75.891072636 271.852536895" fill="none" stroke="red" stroke-opacity="0.4" stroke-width="0.34" /><path d="M 200.0 118.817626058 C 142.595392873 142.595392873 185.350255475 196.09340146 186.878683985 207.596551377" fill="none" stroke="red" stroke-opacity="0.4" stroke-width="0.34" /><path d="M 200.0 116.351494932 C 140.851574831 140.851574831 123.627139988 179.633903997 131.595228196 239.602762623" fill="none" stroke="red" stroke-opacity="0.4" stroke-width="0.34" /><path d="M 200.0 116.351494932 C 140.851574831 140.851574831 71.5513288846 165.747021036 84.9525599186 266.606412679" fill="none" stroke="red" stroke-opacity="0.4" stroke-width="0.34" /><path d="M 200.0 116.351494932 C 140.851574831 140.851574831 169.68863868 191.916970315 172.851065761 215.717804033" fill="none" stroke="red" stroke-opacity="0.4" stroke-width="0.34" /><path d="M 200.0 116.351494932 C 140.851574831 140.851574831 154.212077095 187.789887225 158.989195676 223.74309724" fill="none" stroke="red" stroke-opacity="0.4" stroke-width="0.34" /><path d="M 200.0 116.351494932 C 140.851574831 140.851574831 70.9922451594 165.597932043 84.451806187 266.896322734" fill="none" stroke="red" stroke-opacity="0.4" stroke-width="0.34" /><path d="M 200.0 116.351494932 C 140.851574831 140.851574831 9.77484189453 149.273291172 29.6213009517 298.640299449" fill="none" stroke="red" stroke-opacity="0.4" stroke-width="0.34" /><path d="M 200.0 176.672481383 C 183.504953397 183.504953397 152.691443678 187.384384981 157.627212088 224.531614054" fill="none" stroke="red" stroke-opacity="0.4" stroke-width="0.34" /><path d="M 200.0 176.672481383 C 183.504953397 183.504953397 101.742312049 173.79794988 111.993675225 250.951030133" fill="none" stroke="red" stroke-opacity="0.4" stroke-width="0.34" /><path d="M 200.0 176.672481383 C 183.504953397 183.504953397 105.449261225 174.78646966 115.313873165 249.028810273" fill="none" stroke="red" stroke-opacity="0.4" stroke-width="0.34" /><path d="M 200.0 176.672481383 C 183.504953397 183.504953397 70.9922451594 165.597932043 84.451806187 266.896322734" fill="none" stroke="red" stroke-opacity="0.4" stroke-width="0.34" /><path d="M 200.0 176.672481383 C 183.504953397 183.504953397 37.66570345 156.710854253 54.6022695811 284.1776334" fill="none" stroke="red" stroke-opacity="0.4" stroke-width="0.34" /><path d="M 200.0 176.672481383 C 183.504953397 183.504953397 28.7522514878 154.33393373 46.6187706345 288.799659106" fill="none" stroke="red" stroke-opacity="0.4" stroke-width="0.34" /><path d="M 200.0 176.672481383 C 183.504953397 183.504953397 116.715649103 177.790839761 125.404822904 243.186681477" fill="none" stroke="red" stroke-opacity="0.4" stroke-width="0.34" /><path d="M 200.0 121.00585906 C 144.142707267 144.142707267 67.1989977303 164.586399395 81.0543136126 268.863292119" fill="none" stroke="red" stroke-opacity="0.4" stroke-width="0.34" /><path d="M 200.0 121.00585906 C 144.142707267 144.142707267 152.691443678 187.384384981 157.627212088 224.531614054" fill="none" stroke="red" stroke-opacity="0.4" stroke-width="0.34" /><path d="M 200.0 121.00585906 C 144.142707267 144.142707267 49.3965620874 159.839083223 65.1092311905 278.094655627" fill="none" stroke="red" stroke-opacity="0.4" stroke-width="0.34" /><path d="M 200.0 121.00585906 C 144.142707267 144.142707267 169.68863868 191.916970315 172.851065761 215.717804033" fill="none" stroke="red" stroke-opacity="0.4" stroke-width="0.34" /><path d="M 200.0 121.00585906 C 144.142707267 144.142707267 52.5899117404 160.690643131 67.96941417 276.438760217" fill="none" stroke="red" stroke-opacity="0.4" stroke-width="0.34" /><path d="M 200.0 121.00585906 C 144.142707267 144.142707267 15.8746763787 150.899913701 35.0847311003 295.477260942" fill="none" stroke="red" stroke-opacity="0.4" stroke-width="0.34" /><path d="M 200.0 121.00585906 C 144.142707267 144.142707267 61.4343197712 163.049151939 75.891072636 271.852536895" fill="none" stroke="red" stroke-opacity="0.4" stroke-width="0.34" /><path d="M 200.0 121.00585906 C 144.142707267 144.142707267 28.7522514878 154.33393373 46.6187706345 288.799659106" fill="none" stroke="red" stroke-opacity="0.4" stroke-width="0.34" /><path d="M 200.0 121.00585906 C 144.142707267 144.142707267 5.69329370879 148.184878322 25.9655864452 300.756765742" fill="none" stroke="red" stroke-opacity="0.4" stroke-width="0.34" /><path d="M 200.0 150.372589305 C 164.908121365 164.908121365 169.68863868 191.916970315 172.851065761 215.717804033" fill="none" stroke="red" stroke-opacity="0.4" stroke-width="0.34" /><path d="M 200.0 150.372589305 C 164.908121365 164.908121365 105.449261225 174.78646966 115.313873165 249.028810273" fill="none" stroke="red" stroke-opacity="0.4" stroke-width="0.34" /><path d="M 200.0 150.372589305 C 164.908121365 164.908121365 37.66570345 156.710854253 54.6022695811 284.1776334" fill="none" stroke="red" stroke-opacity="0.4" stroke-width="0.34" /><path d="M 200.0 193.143069247 C 195.151417767 195.151417767 52.5899117404 160.690643131 67.96941417 276.438760217" fill="none" stroke="red" stroke-opacity="0.4" stroke-width="0.34" /><path d="M 200.0 193.143069247 C 195.151417767 195.151417767 70.9922451594 165.597932043 84.451806187 266.896322734" fill="none" stroke="red" stroke-opacity="0.4" stroke-width="0.34" /><path d="M 200.0 193.143069247 C 195.151417767 195.151417767 5.69329370879 148.184878322 25.9655864452 300.756765742" fill="none" stroke="red" stroke-opacity="0.4" stroke-width="0.34" /><path d="M 200.0 193.143069247 C 195.151417767 195.151417767 185.350255475 196.09340146 186.878683985 207.596551377" fill="none" stroke="red" stroke-opacity="0.4" stroke-width="0.34" /><path d="M 200.0 193.143069247 C 195.151417767 195.151417767 116.715649103 177.790839761 125.404822904 243.186681477" fill="none" stroke="red" stroke-opacity="0.4" stroke-width="0.34" /><path d="M 200.0 193.143069247 C 195.151417767 195.151417767 132.03470514 181.875921371 139.125620218 235.243061979" fill="none" stroke="red" stroke-opacity="0.4" stroke-width="0.34" /><path d="M 200.0 192.442283403 C 194.655887344 194.655887344 105.449261225 174.78646966 115.313873165 249.028810273" fill="none" stroke="red" stroke-opacity="0.4" stroke-width="0.34" /><path d="M 200.0 192.442283403 C 194.655887344 194.655887344 17.6119274685 151.363180658 36.6407323335 294.576418123" fill="none" stroke="red" stroke-opacity="0.4" stroke-width="0.34" /><path d="M 200.0 192.442283403 C 194.655887344 194.655887344 37.66570345 156.710854253 54.6022695811 284.1776334" fill="none" stroke="red" stroke-opacity="0.4" stroke-width="0.34" /><path d="M 200.0 192.442283403 C 194.655887344 194.655887344 185.350255475 196.09340146 186.878683985 207.596551377" fill="none" stroke="red" stroke-opacity="0.4" stroke-width="0.34" /><path d="M 200.0 104.763663005 C 132.657740295 132.657740295 52.5899117404 160.690643131 67.96941417 276.438760217" fill="none" stroke="red" stroke-opacity="0.4" stroke-width="0.34" /><path d="M 200.0 104.763663005 C 132.657740295 132.657740295 105.449261225 174.78646966 115.313873165 249.028810273" fill="none" stroke="red" stroke-opacity="0.4" stroke-width="0.34" /><path d="M 200.0 104.763663005 C 132.657740295 132.657740295 61.6180045211 163.098134539 76.0555932968 271.757288091" fill="none" stroke="red" stroke-opacity="0.4" stroke-width="0.34" /><path d="M 200.0 104.763663005 C 132.657740295 132.657740295 70.9922451594 165.597932043 84.451806187 266.896322734" fill="none" stroke="red" stroke-opacity="0.4" stroke-width="0.34" /><path d="M 200.0 104.763663005 C 132.657740295 132.657740295 37.66570345 156.710854253 54.6022695811 284.1776334" fill="none" stroke="red" stroke-opacity="0.4" stroke-width="0.34" /><path d="M 200.0 167.810130834 C 177.238325227 177.238325227 52.5899117404 160.690643131 67.96941417 276.438760217" fill="none" stroke="red" stroke-opacity="0.4" stroke-width="0.34" /><path d="M 200.0 167.810130834 C 177.238325227 177.238325227 61.6180045211 163.098134539 76.0555932968 271.757288091" fill="none" stroke="red" stroke-opacity="0.4" stroke-width="0.34" /><path d="M 200.0 167.810130834 C 177.238325227 177.238325227 9.77484189453 149.273291172 29.6213009517 298.640299449" fill="none" stroke="red" stroke-opacity="0.4" stroke-width="0.34" /><path d="M 200.0 167.461939096 C 176.992116488 176.992116488 67.0341155165 164.542430804 80.9066337927 268.948790962" fill="none" stroke="red" stroke-opacity="0.4" stroke-width="0.34" /><path d="M 200.0 167.461939096 C 176.992116488 176.992116488 116.650641204 177.773504321 125.346597371 243.220390996" fill="none" stroke="red" stroke-opacity="0.4" stroke-width="0.34" /><path d="M 200.0 167.461939096 C 176.992116488 176.992116488 5.69329370879 148.184878322 25.9655864452 300.756765742" fill="none" stroke="red" stroke-opacity="0.4" stroke-width="0.34" /><path d="M 200.0 167.461939096 C 176.992116488 176.992116488 116.715649103 177.790839761 125.404822904 243.186681477" fill="none" stroke="red" stroke-opacity="0.4" stroke-width="0.34" /><path d="M 200.0 167.461939096 C 176.992116488 176.992116488 132.03470514 181.875921371 139.125620218 235.243061979" fill="none" stroke="red" stroke-opacity="0.4" stroke-width="0.34" /><path d="M 200.0 106.992827089 C 134.233997336 134.233997336 67.0341155165 164.542430804 80.9066337927 268.948790962" fill="none" stroke="red" stroke-opacity="0.4" stroke-width="0.34" /><path d="M 200.0 106.992827089 C 134.233997336 134.233997336 61.6180045211 163.098134539 76.0555932968 271.757288091" fill="none" stroke="red" stroke-opacity="0.4" stroke-width="0.34" /><path d="M 200.0 106.992827089 C 134.233997336 134.233997336 37.66570345 156.710854253 54.6022695811 284.1776334" fill="none" stroke="red" stroke-opacity="0.4" stroke-width="0.34" /><path d="M 200.0 106.992827089 C 134.233997336 134.233997336 66.785581469 164.476155058 80.6840296529 269.077667043" fill="none" stroke="red" stroke-opacity="0.4" stroke-width="0.34" /><path d="M 200.0 106.992827089 C 134.233997336 134.233997336 116.650641204 177.773504321 125.346597371 243.220390996" fill="none" stroke="red" stroke-opacity="0.4" stroke-width="0.34" /><path d="M 200.0 106.992827089 C 134.233997336 134.233997336 5.69329370879 148.184878322 25.9655864452 300.756765742" fill="none" stroke="red" stroke-opacity="0.4" stroke-width="0.34" /><path d="M 200.0 106.992827089 C 134.233997336 134.233997336 185.350255475 196.09340146 186.878683985 207.596551377" fill="none" stroke="red" stroke-opacity="0.4" stroke-width="0.34" /><path d="M 200.0 106.992827089 C 134.233997336 134.233997336 116.715649103 177.790839761 125.404822904 243.186681477" fill="none" stroke="red" stroke-opacity="0.4" stroke-width="0.34" /><path d="M 200.0 139.13369306 C 156.961021617 156.961021617 37.66570345 156.710854253 54.6022695811 284.1776334" fill="none" stroke="red" stroke-opacity="0.4" stroke-width="0.34" /><path d="M 200.0 139.13369306 C 156.961021617 156.961021617 66.785581469 164.476155058 80.6840296529 269.077667043" fill="none" stroke="red" stroke-opacity="0.4" stroke-width="0.34" /><path d="M 200.0 118.192562185 C 142.15340597 142.15340597 37.66570345 156.710854253 54.6022695811 284.1776334" fill="none" stroke="red" stroke-opacity="0.4" stroke-width="0.34" /><path d="M 200.0 118.192562185 C 142.15340597 142.15340597 5.69329370879 148.184878322 25.9655864452 300.756765742" fill="none" stroke="red" stroke-opacity="0.4" stroke-width="0.34" /><path d="M 200.0 130.105957835 C 150.57744882 150.57744882 28.7522514878 154.33393373 46.6187706345 288.799659106" fill="none" stroke="red" stroke-opacity="0.4" stroke-width="0.34" /><path d="M 200.0 130.105957835 C 150.57744882 150.57744882 185.350255475 196.09340146 186.878683985 207.596551377" fill="none" stroke="red" stroke-opacity="0.4" stroke-width="0.34" /><path d="M 200.0 118.487745249 C 142.362131916 142.362131916 5.69329370879 148.184878322 25.9655864452 300.756765742" fill="none" stroke="red" stroke-opacity="0.4" stroke-width="0.34" /><path d="M 200.0 118.487745249 C 142.362131916 142.362131916 185.350255475 196.09340146 186.878683985 207.596551377" fill="none" stroke="red" stroke-opacity="0.4" stroke-width="0.34" /><path d="M 200.0 116.176459579 C 140.727806145 140.727806145 5.69329370879 148.184878322 25.9655864452 300.756765742" fill="none" stroke="red" stroke-opacity="0.4" stroke-width="0.34" /><path d="M 200.0 161.500283354 C 172.776589286 172.776589286 5.69329370879 148.184878322 25.9655864452 300.756765742" fill="none" stroke="red" stroke-opacity="0.4" stroke-width="0.34" /><path d="M 200.0 161.500283354 C 172.776589286 172.776589286 185.350255475 196.09340146 186.878683985 207.596551377" fill="none" stroke="red" stroke-opacity="0.4" stroke-width="0.34" /><path d="M 200.0 124.543536898 C 146.644223256 146.644223256 116.715649103 177.790839761 125.404822904 243.186681477" fill="none" stroke="red" stroke-opacity="0.4" stroke-width="0.34" /><path d="M 200.0 148.861826856 C 163.839850992 163.839850992 132.03470514 181.875921371 139.125620218 235.243061979" fill="none" stroke="red" stroke-opacity="0.4" stroke-width="0.34" /><path d="M 200.0 134.66955102 C 153.804396508 153.804396508 132.03470514 181.875921371 139.125620218 235.243061979" fill="none" stroke="red" stroke-opacity="0.4" stroke-width="0.34" /><path d="M 225.76470882 225.76470882 C 218.218400322 231.555194991 87.6635507415 312.605704257 62.3468215788 279.693945402" fill="none" stroke="magenta" stroke-opacity="0.4" stroke-width="0.34" /><path d="M 225.76470882 225.76470882 C 218.218400322 231.555194991 106.111714504 294.113322786 84.9525599186 266.606412679" fill="none" stroke="blue" stroke-opacity="0.4" stroke-width="0.34" /><path d="M 225.76470882 225.76470882 C 218.218400322 231.555194991 102.930421102 297.302241311 81.0543136126 268.863292119" fill="none" stroke="blue" stroke-opacity="0.4" stroke-width="0.34" /><path d="M 225.76470882 225.76470882 C 218.218400322 231.555194991 177.844210293 222.208894084 172.851065761 215.717804033" fill="none" stroke="magenta" stroke-opacity="0.4" stroke-width="0.34" /><path d="M 225.76470882 225.76470882 C 218.218400322 231.555194991 98.7167867734 301.52597514 75.891072636 271.852536895" fill="none" stroke="blue" stroke-opacity="0.4" stroke-width="0.34" /><path d="M 225.76470882 225.76470882 C 218.218400322 231.555194991 139.124127587 261.021783495 125.404822904 243.186681477" fill="none" stroke="purple" stroke-opacity="0.4" stroke-width="0.34" /><path d="M 225.76470882 225.76470882 C 218.218400322 231.555194991 150.321440057 249.79763261 139.125620218 235.243061979" fill="none" stroke="blue" stroke-opacity="0.4" stroke-width="0.34" /><path d="M 246.856639882 246.856639882 C 233.132647804 257.387429386 128.179514989 271.992628823 111.993675225 250.951030133" fill="none" stroke="green" stroke-opacity="0.4" stroke-width="0.34" /><path d="M 246.856639882 246.856639882 C 233.132647804 257.387429386 177.844210293 222.208894084 172.851065761 215.717804033" fill="none" stroke="purple" stroke-opacity="0.4" stroke-width="0.34" /><path d="M 246.856639882 246.856639882 C 233.132647804 257.387429386 166.531770702 233.548448035 158.989195676 223.74309724" fill="none" stroke="magenta" stroke-opacity="0.4" stroke-width="0.34" /><path d="M 246.856639882 246.856639882 C 233.132647804 257.387429386 60.9568024517 339.376464944 29.6213009517 298.640299449" fill="none" stroke="purple" stroke-opacity="0.4" stroke-width="0.34" /><path d="M 246.856639882 246.856639882 C 233.132647804 257.387429386 66.685242625 333.634294489 36.6407323335 294.576418123" fill="none" stroke="red" stroke-opacity="0.4" stroke-width="0.34" /><path d="M 246.856639882 246.856639882 C 233.132647804 257.387429386 81.3433518003 318.941051844 54.6022695811 284.1776334" fill="none" stroke="blue" stroke-opacity="0.4" stroke-width="0.34" /><path d="M 246.856639882 246.856639882 C 233.132647804 257.387429386 74.8281522632 325.471867418 46.6187706345 288.799659106" fill="none" stroke="blue" stroke-opacity="0.4" stroke-width="0.34" /><path d="M 246.856639882 246.856639882 C 233.132647804 257.387429386 139.124127587 261.021783495 125.404822904 243.186681477" fill="none" stroke="green" stroke-opacity="0.4" stroke-width="0.34" /><path d="M 246.856639882 246.856639882 C 233.132647804 257.387429386 150.321440057 249.79763261 139.125620218 235.243061979" fill="none" stroke="magenta" stroke-opacity="0.4" stroke-width="0.34" /><path d="M 265.15722286 265.15722286 C 246.073114128 279.800974532 144.176013479 255.957788929 131.595228196 239.602762623" fill="none" stroke="red" stroke-opacity="0.4" stroke-width="0.34" /><path d="M 265.15722286 265.15722286 C 246.073114128 279.800974532 165.420278748 234.662604081 157.627212088 224.531614054" fill="none" stroke="green" stroke-opacity="0.4" stroke-width="0.34" /><path d="M 265.15722286 265.15722286 C 246.073114128 279.800974532 89.9179068758 310.345944741 65.1092311905 278.094655627" fill="none" stroke="green" stroke-opacity="0.4" stroke-width="0.34" /><path d="M 265.15722286 265.15722286 C 246.073114128 279.800974532 128.179514989 271.992628823 111.993675225 250.951030133" fill="none" stroke="magenta" stroke-opacity="0.4" stroke-width="0.34" /><path d="M 265.15722286 265.15722286 C 246.073114128 279.800974532 81.3433518003 318.941051844 54.6022695811 284.1776334" fill="none" stroke="red" stroke-opacity="0.4" stroke-width="0.34" /><path d="M 265.15722286 265.15722286 C 246.073114128 279.800974532 74.8281522632 325.471867418 46.6187706345 288.799659106" fill="none" stroke="purple" stroke-opacity="0.4" stroke-width="0.34" /><path d="M 265.15722286 265.15722286 C 246.073114128 279.800974532 189.29191416 210.733751647 186.878683985 207.596551377" fill="none" stroke="green" stroke-opacity="0.4" stroke-width="0.34" /><path d="M 212.754256763 212.754256763 C 209.018621446 215.620710559 144.176013479 255.957788929 131.595228196 239.602762623" fill="none" stroke="red" stroke-opacity="0.4" stroke-width="0.34" /><path d="M 212.754256763 212.754256763 C 209.018621446 215.620710559 179.006916205 221.043401326 174.275805152 214.892954912" fill="none" stroke="blue" stroke-opacity="0.4" stroke-width="0.34" /><path d="M 212.754256763 212.754256763 C 209.018621446 215.620710559 165.420278748 234.662604081 157.627212088 224.531614054" fill="none" stroke="green" stroke-opacity="0.4" stroke-width="0.34" /><path d="M 212.754256763 212.754256763 C 209.018621446 215.620710559 128.179514989 271.992628823 111.993675225 250.951030133" fill="none" stroke="green" stroke-opacity="0.4" stroke-width="0.34" /><path d="M 212.754256763 212.754256763 C 209.018621446 215.620710559 177.844210293 222.208894084 172.851065761 215.717804033" fill="none" stroke="red" stroke-opacity="0.4" stroke-width="0.34" /><path d="M 212.754256763 212.754256763 C 209.018621446 215.620710559 92.252054215 308.006202772 67.96941417 276.438760217" fill="none" stroke="magenta" stroke-opacity="0.4" stroke-width="0.34" /><path d="M 212.754256763 212.754256763 C 209.018621446 215.620710559 166.531770702 233.548448035 158.989195676 223.74309724" fill="none" stroke="blue" stroke-opacity="0.4" stroke-width="0.34" /><path d="M 212.754256763 212.754256763 C 209.018621446 215.620710559 102.809902078 297.423049202 80.9066337927 268.948790962" fill="none" stroke="magenta" stroke-opacity="0.4" stroke-width="0.34" /><path d="M 212.754256763 212.754256763 C 209.018621446 215.620710559 66.685242625 333.634294489 36.6407323335 294.576418123" fill="none" stroke="magenta" stroke-opacity="0.4" stroke-width="0.34" /><path d="M 212.754256763 212.754256763 C 209.018621446 215.620710559 139.076610707 261.069414267 125.346597371 243.220390996" fill="none" stroke="blue" stroke-opacity="0.4" stroke-width="0.34" /><path d="M 246.737027358 246.737027358 C 233.048068977 257.240934561 98.8510493242 301.391390781 76.0555932968 271.757288091" fill="none" stroke="blue" stroke-opacity="0.4" stroke-width="0.34" /><path d="M 246.737027358 246.737027358 C 233.048068977 257.240934561 98.7167867734 301.52597514 75.891072636 271.852536895" fill="none" stroke="purple" stroke-opacity="0.4" stroke-width="0.34" /><path d="M 246.737027358 246.737027358 C 233.048068977 257.240934561 102.628238575 297.605148127 80.6840296529 269.077667043" fill="none" stroke="green" stroke-opacity="0.4" stroke-width="0.34" /><path d="M 246.737027358 246.737027358 C 233.048068977 257.240934561 189.29191416 210.733751647 186.878683985 207.596551377" fill="none" stroke="magenta" stroke-opacity="0.4" stroke-width="0.34" /><path d="M 259.322631154 259.322631154 C 241.947434767 272.655088263 179.006916205 221.043401326 174.275805152 214.892954912" fill="none" stroke="magenta" stroke-opacity="0.4" stroke-width="0.34" /><path d="M 259.322631154 259.322631154 C 241.947434767 272.655088263 128.179514989 271.992628823 111.993675225 250.951030133" fill="none" stroke="purple" stroke-opacity="0.4" stroke-width="0.34" /><path d="M 259.322631154 259.322631154 C 241.947434767 272.655088263 177.844210293 222.208894084 172.851065761 215.717804033" fill="none" stroke="green" stroke-opacity="0.4" stroke-width="0.34" /><path d="M 259.322631154 259.322631154 C 241.947434767 272.655088263 166.531770702 233.548448035 158.989195676 223.74309724" fill="none" stroke="magenta" stroke-opacity="0.4" stroke-width="0.34" /><path d="M 259.322631154 259.322631154 C 241.947434767 272.655088263 102.809902078 297.423049202 80.9066337927 268.948790962" fill="none" stroke="blue" stroke-opacity="0.4" stroke-width="0.34" /><path d="M 259.322631154 259.322631154 C 241.947434767 272.655088263 65.4154161264 334.907164587 35.0847311003 295.477260942" fill="none" stroke="green" stroke-opacity="0.4" stroke-width="0.34" /><path d="M 259.322631154 259.322631154 C 241.947434767 272.655088263 60.9568024517 339.376464944 29.6213009517 298.640299449" fill="none" stroke="blue" stroke-opacity="0.4" stroke-width="0.34" /><path d="M 259.322631154 259.322631154 C 241.947434767 272.655088263 150.321440057 249.79763261 139.125620218 235.243061979" fill="none" stroke="purple" stroke-opacity="0.4" stroke-width="0.34" /><path d="M 294.889037966 294.889037966 C 267.096682206 316.2148626 165.420278748 234.662604081 157.627212088 224.531614054" fill="none" stroke="green" stroke-opacity="0.4" stroke-width="0.34" /><path d="M 294.889037966 294.889037966 C 267.096682206 316.2148626 89.9179068758 310.345944741 65.1092311905 278.094655627" fill="none" stroke="magenta" stroke-opacity="0.4" stroke-width="0.34" /><path d="M 294.889037966 294.889037966 C 267.096682206 316.2148626 166.531770702 233.548448035 158.989195676 223.74309724" fill="none" stroke="red" stroke-opacity="0.4" stroke-width="0.34" /><path d="M 294.889037966 294.889037966 C 267.096682206 316.2148626 98.8510493242 301.391390781 76.0555932968 271.757288091" fill="none" stroke="green" stroke-opacity="0.4" stroke-width="0.34" /><path d="M 294.889037966 294.889037966 C 267.096682206 316.2148626 60.9568024517 339.376464944 29.6213009517 298.640299449" fill="none" stroke="blue" stroke-opacity="0.4" stroke-width="0.34" /><path d="M 294.889037966 294.889037966 C 267.096682206 316.2148626 66.685242625 333.634294489 36.6407323335 294.576418123" fill="none" stroke="red" stroke-opacity="0.4" stroke-width="0.34" /><path d="M 294.889037966 294.889037966 C 267.096682206 316.2148626 98.7167867734 301.52597514 75.891072636 271.852536895" fill="none" stroke="purple" stroke-opacity="0.4" stroke-width="0.34" /><path d="M 294.889037966 294.889037966 C 267.096682206 316.2148626 81.3433518003 318.941051844 54.6022695811 284.1776334" fill="none" stroke="magenta" stroke-opacity="0.4" stroke-width="0.34" /><path d="M 294.889037966 294.889037966 C 267.096682206 316.2148626 102.628238575 297.605148127 80.6840296529 269.077667043" fill="none" stroke="red" stroke-opacity="0.4" stroke-width="0.34" /><path d="M 228.711636248 228.711636248 C 220.30219269 235.164429244 102.930421102 297.302241311 81.0543136126 268.863292119" fill="none" stroke="red" stroke-opacity="0.4" stroke-width="0.34" /><path d="M 228.711636248 228.711636248 C 220.30219269 235.164429244 89.9179068758 310.345944741 65.1092311905 278.094655627" fill="none" stroke="red" stroke-opacity="0.4" stroke-width="0.34" /><path d="M 228.711636248 228.711636248 C 220.30219269 235.164429244 177.844210293 222.208894084 172.851065761 215.717804033" fill="none" stroke="green" stroke-opacity="0.4" stroke-width="0.34" /><path d="M 228.711636248 228.711636248 C 220.30219269 235.164429244 102.809902078 297.423049202 80.9066337927 268.948790962" fill="none" stroke="red" stroke-opacity="0.4" stroke-width="0.34" /><path d="M 228.711636248 228.711636248 C 220.30219269 235.164429244 98.8510493242 301.391390781 76.0555932968 271.757288091" fill="none" stroke="green" stroke-opacity="0.4" stroke-width="0.34" /><path d="M 228.711636248 228.711636248 C 220.30219269 235.164429244 60.9568024517 339.376464944 29.6213009517 298.640299449" fill="none" stroke="red" stroke-opacity="0.4" stroke-width="0.34" /><path d="M 228.711636248 228.711636248 C 220.30219269 235.164429244 66.685242625 333.634294489 36.6407323335 294.576418123" fill="none" stroke="purple" stroke-opacity="0.4" stroke-width="0.34" /><path d="M 228.711636248 228.711636248 C 220.30219269 235.164429244 98.7167867734 301.52597514 75.891072636 271.852536895" fill="none" stroke="magenta" stroke-opacity="0.4" stroke-width="0.34" /><path d="M 228.711636248 228.711636248 C 220.30219269 235.164429244 81.3433518003 318.941051844 54.6022695811 284.1776334" fill="none" stroke="blue" stroke-opacity="0.4" stroke-width="0.34" /><path d="M 228.711636248 228.711636248 C 220.30219269 235.164429244 74.8281522632 325.471867418 46.6187706345 288.799659106" fill="none" stroke="red" stroke-opacity="0.4" stroke-width="0.34" /><path d="M 288.665362633 288.665362633 C 262.695879174 308.592448154 128.179514989 271.992628823 111.993675225 250.951030133" fill="none" stroke="purple" stroke-opacity="0.4" stroke-width="0.34" /><path d="M 288.665362633 288.665362633 C 262.695879174 308.592448154 177.844210293 222.208894084 172.851065761 215.717804033" fill="none" stroke="blue" stroke-opacity="0.4" stroke-width="0.34" /><path d="M 288.665362633 288.665362633 C 262.695879174 308.592448154 166.531770702 233.548448035 158.989195676 223.74309724" fill="none" stroke="purple" stroke-opacity="0.4" stroke-width="0.34" /><path d="M 288.665362633 288.665362633 C 262.695879174 308.592448154 65.4154161264 334.907164587 35.0847311003 295.477260942" fill="none" stroke="green" stroke-opacity="0.4" stroke-width="0.34" /><path d="M 288.665362633 288.665362633 C 262.695879174 308.592448154 60.9568024517 339.376464944 29.6213009517 298.640299449" fill="none" stroke="blue" stroke-opacity="0.4" stroke-width="0.34" /><path d="M 288.665362633 288.665362633 C 262.695879174 308.592448154 98.7167867734 301.52597514 75.891072636 271.852536895" fill="none" stroke="blue" stroke-opacity="0.4" stroke-width="0.34" /><path d="M 288.665362633 288.665362633 C 262.695879174 308.592448154 74.8281522632 325.471867418 46.6187706345 288.799659106" fill="none" stroke="purple" stroke-opacity="0.4" stroke-width="0.34" /><path d="M 288.665362633 288.665362633 C 262.695879174 308.592448154 139.076610707 261.069414267 125.346597371 243.220390996" fill="none" stroke="blue" stroke-opacity="0.4" stroke-width="0.34" /><path d="M 227.823740642 227.823740642 C 219.674355686 234.076983654 130.889072819 269.276576556 115.313873165 249.028810273" fill="none" stroke="red" stroke-opacity="0.4" stroke-width="0.34" /><path d="M 227.823740642 227.823740642 C 219.674355686 234.076983654 98.8510493242 301.391390781 76.0555932968 271.757288091" fill="none" stroke="magenta" stroke-opacity="0.4" stroke-width="0.34" /><path d="M 227.823740642 227.823740642 C 219.674355686 234.076983654 60.9568024517 339.376464944 29.6213009517 298.640299449" fill="none" stroke="purple" stroke-opacity="0.4" stroke-width="0.34" /><path d="M 227.823740642 227.823740642 C 219.674355686 234.076983654 102.628238575 297.605148127 80.6840296529 269.077667043" fill="none" stroke="red" stroke-opacity="0.4" stroke-width="0.34" /><path d="M 227.823740642 227.823740642 C 219.674355686 234.076983654 139.076610707 261.069414267 125.346597371 243.220390996" fill="none" stroke="magenta" stroke-opacity="0.4" stroke-width="0.34" /><path d="M 227.823740642 227.823740642 C 219.674355686 234.076983654 189.29191416 210.733751647 186.878683985 207.596551377" fill="none" stroke="purple" stroke-opacity="0.4" stroke-width="0.34" /><path d="M 206.640975005 206.640975005 C 204.69587846 208.133500078 130.889072819 269.276576556 115.313873165 249.028810273" fill="none" stroke="green" stroke-opacity="0.4" stroke-width="0.34" /><path d="M 206.640975005 206.640975005 C 204.69587846 208.133500078 166.531770702 233.548448035 158.989195676 223.74309724" fill="none" stroke="magenta" stroke-opacity="0.4" stroke-width="0.34" /><path d="M 206.640975005 206.640975005 C 204.69587846 208.133500078 74.8281522632 325.471867418 46.6187706345 288.799659106" fill="none" stroke="magenta" stroke-opacity="0.4" stroke-width="0.34" /><path d="M 206.640975005 206.640975005 C 204.69587846 208.133500078 139.076610707 261.069414267 125.346597371 243.220390996" fill="none" stroke="magenta" stroke-opacity="0.4" stroke-width="0.34" /><path d="M 206.640975005 206.640975005 C 204.69587846 208.133500078 139.124127587 261.021783495 125.404822904 243.186681477" fill="none" stroke="purple" stroke-opacity="0.4" stroke-width="0.34" /><path d="M 206.640975005 206.640975005 C 204.69587846 208.133500078 150.321440057 249.79763261 139.125620218 235.243061979" fill="none" stroke="purple" stroke-opacity="0.4" stroke-width="0.34" /><path d="M 279.387477397 279.387477397 C 256.135423609 297.229405795 130.889072819 269.276576556 115.313873165 249.028810273" fill="none" stroke="blue" stroke-opacity="0.4" stroke-width="0.34" /><path d="M 279.387477397 279.387477397 C 256.135423609 297.229405795 98.8510493242 301.391390781 76.0555932968 271.757288091" fill="none" stroke="blue" stroke-opacity="0.4" stroke-width="0.34" /><path d="M 279.387477397 279.387477397 C 256.135423609 297.229405795 60.9568024517 339.376464944 29.6213009517 298.640299449" fill="none" stroke="green" stroke-opacity="0.4" stroke-width="0.34" /><path d="M 279.387477397 279.387477397 C 256.135423609 297.229405795 98.7167867734 301.52597514 75.891072636 271.852536895" fill="none" stroke="magenta" stroke-opacity="0.4" stroke-width="0.34" /><path d="M 279.387477397 279.387477397 C 256.135423609 297.229405795 139.124127587 261.021783495 125.404822904 243.186681477" fill="none" stroke="purple" stroke-opacity="0.4" stroke-width="0.34" /><path d="M 261.174455384 261.174455384 C 243.256872237 274.923100492 92.252054215 308.006202772 67.96941417 276.438760217" fill="none" stroke="red" stroke-opacity="0.4" stroke-width="0.34" /><path d="M 261.174455384 261.174455384 C 243.256872237 274.923100492 166.531770702 233.548448035 158.989195676 223.74309724" fill="none" stroke="purple" stroke-opacity="0.4" stroke-width="0.34" /><path d="M 261.174455384 261.174455384 C 243.256872237 274.923100492 60.9568024517 339.376464944 29.6213009517 298.640299449" fill="none" stroke="blue" stroke-opacity="0.4" stroke-width="0.34" /><path d="M 261.174455384 261.174455384 C 243.256872237 274.923100492 74.8281522632 325.471867418 46.6187706345 288.799659106" fill="none" stroke="red" stroke-opacity="0.4" stroke-width="0.34" /><path d="M 261.174455384 261.174455384 C 243.256872237 274.923100492 139.076610707 261.069414267 125.346597371 243.220390996" fill="none" stroke="purple" stroke-opacity="0.4" stroke-width="0.34" /><path d="M 261.174455384 261.174455384 C 243.256872237 274.923100492 57.9734351814 342.366982935 25.9655864452 300.756765742" fill="none" stroke="green" stroke-opacity="0.4" stroke-width="0.34" /><path d="M 261.174455384 261.174455384 C 243.256872237 274.923100492 189.29191416 210.733751647 186.878683985 207.596551377" fill="none" stroke="blue" stroke-opacity="0.4" stroke-width="0.34" /><path d="M 261.174455384 261.174455384 C 243.256872237 274.923100492 150.321440057 249.79763261 139.125620218 235.243061979" fill="none" stroke="blue" stroke-opacity="0.4" stroke-width="0.34" /><path d="M 260.976894459 260.976894459 C 243.117175568 274.681138763 130.889072819 269.276576556 115.313873165 249.028810273" fill="none" stroke="purple" stroke-opacity="0.4" stroke-width="0.34" /><path d="M 260.976894459 260.976894459 C 243.117175568 274.681138763 102.809902078 297.423049202 80.9066337927 268.948790962" fill="none" stroke="green" stroke-opacity="0.4" stroke-width="0.34" /><path d="M 260.976894459 260.976894459 C 243.117175568 274.681138763 65.4154161264 334.907164587 35.0847311003 295.477260942" fill="none" stroke="blue" stroke-opacity="0.4" stroke-width="0.34" /><path d="M 260.976894459 260.976894459 C 243.117175568 274.681138763 74.8281522632 325.471867418 46.6187706345 288.799659106" fill="none" stroke="green" stroke-opacity="0.4" stroke-width="0.34" /><path d="M 258.082173311 258.082173311 C 241.070298614 271.135843882 66.685242625 333.634294489 36.6407323335 294.576418123" fill="none" stroke="green" stroke-opacity="0.4" stroke-width="0.34" /><path d="M 258.082173311 258.082173311 C 241.070298614 271.135843882 102.628238575 297.605148127 80.6840296529 269.077667043" fill="none" stroke="magenta" stroke-opacity="0.4" stroke-width="0.34" /><path d="M 258.082173311 258.082173311 C 241.070298614 271.135843882 139.076610707 261.069414267 125.346597371 243.220390996" fill="none" stroke="blue" stroke-opacity="0.4" stroke-width="0.34" /><path d="M 258.082173311 258.082173311 C 241.070298614 271.135843882 189.29191416 210.733751647 186.878683985 207.596551377" fill="none" stroke="green" stroke-opacity="0.4" stroke-width="0.34" /><path d="M 258.082173311 258.082173311 C 241.070298614 271.135843882 139.124127587 261.021783495 125.404822904 243.186681477" fill="none" stroke="magenta" stroke-opacity="0.4" stroke-width="0.34" /><path d="M 218.316047551 218.316047551 C 212.951401428 222.432485302 98.7167867734 301.52597514 75.891072636 271.852536895" fill="none" stroke="magenta" stroke-opacity="0.4" stroke-width="0.34" /><path d="M 218.316047551 218.316047551 C 212.951401428 222.432485302 102.628238575 297.605148127 80.6840296529 269.077667043" fill="none" stroke="green" stroke-opacity="0.4" stroke-width="0.34" /><path d="M 218.316047551 218.316047551 C 212.951401428 222.432485302 189.29191416 210.733751647 186.878683985 207.596551377" fill="none" stroke="magenta" stroke-opacity="0.4" stroke-width="0.34" /><path d="M 244.728980409 244.728980409 C 231.628165363 254.781589358 74.8281522632 325.471867418 46.6187706345 288.799659106" fill="none" stroke="magenta" stroke-opacity="0.4" stroke-width="0.34" /><path d="M 244.728980409 244.728980409 C 231.628165363 254.781589358 139.076610707 261.069414267 125.346597371 243.220390996" fill="none" stroke="blue" stroke-opacity="0.4" stroke-width="0.34" /><path d="M 244.728980409 244.728980409 C 231.628165363 254.781589358 57.9734351814 342.366982935 25.9655864452 300.756765742" fill="none" stroke="magenta" stroke-opacity="0.4" stroke-width="0.34" /><path d="M 244.728980409 244.728980409 C 231.628165363 254.781589358 150.321440057 249.79763261 139.125620218 235.243061979" fill="none" stroke="magenta" stroke-opacity="0.4" stroke-width="0.34" /><path d="M 215.490847094 215.490847094 C 210.953683026 218.972335532 74.8281522632 325.471867418 46.6187706345 288.799659106" fill="none" stroke="red" stroke-opacity="0.4" stroke-width="0.34" /><path d="M 233.337579031 233.337579031 C 223.573228201 240.830028943 102.628238575 297.605148127 80.6840296529 269.077667043" fill="none" stroke="magenta" stroke-opacity="0.4" stroke-width="0.34" /><path d="M 233.337579031 233.337579031 C 223.573228201 240.830028943 57.9734351814 342.366982935 25.9655864452 300.756765742" fill="none" stroke="green" stroke-opacity="0.4" stroke-width="0.34" /><path d="M 233.337579031 233.337579031 C 223.573228201 240.830028943 189.29191416 210.733751647 186.878683985 207.596551377" fill="none" stroke="green" stroke-opacity="0.4" stroke-width="0.34" /><path d="M 233.337579031 233.337579031 C 223.573228201 240.830028943 150.321440057 249.79763261 139.125620218 235.243061979" fill="none" stroke="purple" stroke-opacity="0.4" stroke-width="0.34" /><path d="M 244.958541554 244.958541554 C 231.790489605 255.062743193 139.076610707 261.069414267 125.346597371 243.220390996" fill="none" stroke="purple" stroke-opacity="0.4" stroke-width="0.34" /><path d="M 244.958541554 244.958541554 C 231.790489605 255.062743193 57.9734351814 342.366982935 25.9655864452 300.756765742" fill="none" stroke="red" stroke-opacity="0.4" stroke-width="0.34" /><path d="M 237.543858322 237.543858322 C 226.547516811 245.981647932 150.321440057 249.79763261 139.125620218 235.243061979" fill="none" stroke="purple" stroke-opacity="0.4" stroke-width="0.34" /><path d="M 230.418807262 230.418807262 C 221.50934489 237.255278187 57.9734351814 342.366982935 25.9655864452 300.756765742" fill="none" stroke="blue" stroke-opacity="0.4" stroke-width="0.34" /><path d="M 230.418807262 230.418807262 C 221.50934489 237.255278187 189.29191416 210.733751647 186.878683985 207.596551377" fill="none" stroke="purple" stroke-opacity="0.4" stroke-width="0.34" /><path d="M 290.010253004 290.010253004 C 263.646860275 310.239595739 57.9734351814 342.366982935 25.9655864452 300.756765742" fill="none" stroke="magenta" stroke-opacity="0.4" stroke-width="0.34" /><path d="M 290.010253004 290.010253004 C 263.646860275 310.239595739 139.124127587 261.021783495 125.404822904 243.186681477" fill="none" stroke="green" stroke-opacity="0.4" stroke-width="0.34" /><path d="M 204.052719346 204.052719346 C 202.865705332 204.963547234 57.9734351814 342.366982935 25.9655864452 300.756765742" fill="none" stroke="magenta" stroke-opacity="0.4" stroke-width="0.34" /><path d="M 268.202750564 268.202750564 C 248.226627419 283.530968968 189.29191416 210.733751647 186.878683985 207.596551377" fill="none" stroke="blue" stroke-opacity="0.4" stroke-width="0.34" /><svg baseProfile="full" height="100%" version="1.1" width="100%" xmlns="http://www.w3.org/2000/svg" xmlns:ev="http://www.w3.org/2001/xml-events" xmlns:xlink="http://www.w3.org/1999/xlink"><defs /><line stroke="grey" stroke-opacity="0.5" x1="200" x2="200" y1="200" y2="100" /><circle cx="200.0" cy="144.764033942" fill="orange" r="1.65" stroke="red" stroke-width="0.1" /><rect fill="green" height="1.5" stroke="green" stroke-width="0.1" width="1.5" x="199.25" y="109.575185567" /><circle cx="200.0" cy="157.094257241" fill="orange" r="1.6" stroke="purple" stroke-width="0.1" /><rect fill="green" height="1.3" stroke="red" stroke-width="0.1" width="1.3" x="199.35" y="191.520679097" /><rect fill="green" height="1.5" stroke="green" stroke-width="0.1" width="1.5" x="199.25" y="163.748163034" /><rect fill="green" height="1.3" stroke="blue" stroke-width="0.1" width="1.3" x="199.35" y="153.672487202" /><rect fill="green" height="1.75" stroke="purple" stroke-width="0.1" width="1.75" x="199.125" y="165.978324455" /><circle cx="200.0" cy="118.817626058" fill="orange" r="1.5" stroke="green" stroke-width="0.1" /><rect fill="green" height="1.4" stroke="purple" stroke-width="0.1" width="1.4" x="199.3" y="115.651494932" /><rect fill="green" height="1.75" stroke="purple" stroke-width="0.1" width="1.75" x="199.125" y="175.797481383" /><rect fill="green" height="1.7" stroke="red" stroke-width="0.1" width="1.7" x="199.15" y="120.15585906" /><rect fill="green" height="1.35" stroke="purple" stroke-width="0.1" width="1.35" x="199.325" y="149.697589305" /><circle cx="200.0" cy="193.143069247" fill="orange" r="1.65" stroke="purple" stroke-width="0.1" /><rect fill="green" height="1.25" stroke="green" stroke-width="0.1" width="1.25" x="199.375" y="191.817283403" /><circle cx="200.0" cy="104.763663005" fill="orange" r="1.75" stroke="red" stroke-width="0.1" /><circle cx="200.0" cy="167.810130834" fill="orange" r="1.4" stroke="green" stroke-width="0.1" /><circle cx="200.0" cy="167.461939096" fill="orange" r="1.3" stroke="red" stroke-width="0.1" /><circle cx="200.0" cy="106.992827089" fill="orange" r="1.25" stroke="blue" stroke-width="0.1" /><rect fill="green" height="1.25" stroke="purple" stroke-width="0.1" width="1.25" x="199.375" y="138.50869306" /><circle cx="200.0" cy="118.192562185" fill="orange" r="1.8" stroke="purple" stroke-width="0.1" /><rect fill="green" height="1.75" stroke="red" stroke-width="0.1" width="1.75" x="199.125" y="158.553038753" /><rect fill="green" height="1.6" stroke="green" stroke-width="0.1" width="1.6" x="199.2" y="129.305957835" /><circle cx="200.0" cy="118.487745249" fill="orange" r="1.85" stroke="blue" stroke-width="0.1" /><circle cx="200.0" cy="116.176459579" fill="orange" r="1.5" stroke="red" stroke-width="0.1" /><circle cx="200.0" cy="161.500283354" fill="orange" r="1.25" stroke="purple" stroke-width="0.1" /><circle cx="200.0" cy="124.543536898" fill="orange" r="1.65" stroke="green" stroke-width="0.1" /><circle cx="200.0" cy="189.906496148" fill="orange" r="1.2" stroke="blue" stroke-width="0.1" /><circle cx="200.0" cy="191.146271648" fill="orange" r="1.35" stroke="blue" stroke-width="0.1" /><rect fill="green" height="1.4" stroke="green" stroke-width="0.1" width="1.4" x="199.3" y="148.161826856" /><rect fill="green" height="1.45" stroke="red" stroke-width="0.1" width="1.45" x="199.275" y="171.588675041" /><circle cx="200.0" cy="177.761567237" fill="orange" r="1.2" stroke="purple" stroke-width="0.1" /><rect fill="green" height="1.35" stroke="blue" stroke-width="0.1" width="1.35" x="199.325" y="135.512190243" /><circle cx="200.0" cy="120.28522744" fill="orange" r="1.4" stroke="green" stroke-width="0.1" /><circle cx="200.0" cy="134.66955102" fill="orange" r="1.6" stroke="green" stroke-width="0.1" /><circle cx="200.0" cy="145.33862951" fill="orange" r="1.65" stroke="blue" stroke-width="0.1" /><rect fill="green" height="1.35" stroke="red" stroke-width="0.1" width="1.35" x="199.325" y="198.901825806" /><circle cx="200.0" cy="117.815017474" fill="orange" r="1.3" stroke="green" stroke-width="0.1" /><rect fill="green" height="1.55" stroke="blue" stroke-width="0.1" width="1.55" x="199.225" y="130.925352881" /><rect fill="green" height="1.25" stroke="purple" stroke-width="0.1" width="1.25" x="199.375" y="171.155343557" /><circle cx="200.0" cy="180.240924691" fill="orange" r="1.25" stroke="red" stroke-width="0.1" /><circle cx="200.0" cy="157.659692919" fill="orange" r="1.6" stroke="purple" stroke-width="0.1" /></svg><svg baseProfile="full" height="100%" version="1.1" width="100%" xmlns="http://www.w3.org/2000/svg" xmlns:ev="http://www.w3.org/2001/xml-events" xmlns:xlink="http://www.w3.org/1999/xlink"><defs /><line stroke="blue" stroke-opacity="0.3" stroke-width="1.5" x1="200" x2="300" y1="200" y2="300" /><circle cx="225.76470882" cy="225.76470882" fill="orange" r="1.45" stroke="purple" stroke-width="0.1" /><rect fill="green" height="1.5" stroke="green" stroke-width="0.1" width="1.5" x="246.106639882" y="246.106639882" /><rect fill="green" height="1.6" stroke="purple" stroke-width="0.1" width="1.6" x="264.35722286" y="264.35722286" /><rect fill="green" height="1.35" stroke="purple" stroke-width="0.1" width="1.35" x="212.079256763" y="212.079256763" /><rect fill="green" height="1.35" stroke="blue" stroke-width="0.1" width="1.35" x="246.062027358" y="246.062027358" /><circle cx="259.322631154" cy="259.322631154" fill="orange" r="1.2" stroke="blue" stroke-width="0.1" /><rect fill="green" height="1.4" stroke="purple" stroke-width="0.1" width="1.4" x="294.189037966" y="294.189037966" /><circle cx="228.711636248" cy="228.711636248" fill="orange" r="1.85" stroke="purple" stroke-width="0.1" /><circle cx="288.665362633" cy="288.665362633" fill="orange" r="1.4" stroke="red" stroke-width="0.1" /><circle cx="227.823740642" cy="227.823740642" fill="orange" r="1.5" stroke="green" stroke-width="0.1" /><circle cx="206.640975005" cy="206.640975005" fill="orange" r="1.55" stroke="red" stroke-width="0.1" /><rect fill="green" height="1.5" stroke="green" stroke-width="0.1" width="1.5" x="278.637477397" y="278.637477397" /><rect fill="green" height="1.5" stroke="red" stroke-width="0.1" width="1.5" x="260.424455384" y="260.424455384" /><circle cx="260.976894459" cy="260.976894459" fill="orange" r="1.4" stroke="red" stroke-width="0.1" /><circle cx="258.082173311" cy="258.082173311" fill="orange" r="1.75" stroke="red" stroke-width="0.1" /><rect fill="green" height="1.75" stroke="green" stroke-width="0.1" width="1.75" x="217.441047551" y="217.441047551" /><rect fill="green" height="1.95" stroke="blue" stroke-width="0.1" width="1.95" x="243.753980409" y="243.753980409" /><circle cx="215.490847094" cy="215.490847094" fill="orange" r="1.05" stroke="red" stroke-width="0.1" /><circle cx="233.337579031" cy="233.337579031" fill="orange" r="1.8" stroke="purple" stroke-width="0.1" /><circle cx="244.958541554" cy="244.958541554" fill="orange" r="1.55" stroke="green" stroke-width="0.1" /><rect fill="green" height="1.6" stroke="purple" stroke-width="0.1" width="1.6" x="236.743858322" y="236.743858322" /><rect fill="green" height="1.3" stroke="blue" stroke-width="0.1" width="1.3" x="229.768807262" y="229.768807262" /><rect fill="green" height="1.7" stroke="purple" stroke-width="0.1" width="1.7" x="289.160253004" y="289.160253004" /><rect fill="green" height="1.75" stroke="purple" stroke-width="0.1" width="1.75" x="203.177719346" y="203.177719346" /><rect fill="green" height="1.65" stroke="blue" stroke-width="0.1" width="1.65" x="267.377750564" y="267.377750564" /><rect fill="green" height="1.55" stroke="blue" stroke-width="0.1" width="1.55" x="269.167621159" y="269.167621159" /><circle cx="267.681582757" cy="267.681582757" fill="orange" r="1.45" stroke="purple" stroke-width="0.1" /></svg><svg baseProfile="full" height="100%" version="1.1" width="100%" xmlns="http://www.w3.org/2000/svg" xmlns:ev="http://www.w3.org/2001/xml-events" xmlns:xlink="http://www.w3.org/1999/xlink"><defs /><line stroke="black" stroke-dasharray="1 1" x1="200" x2="10" y1="200" y2="310" /><circle cx="43.1095235596" cy="290.831328465" fill="orange" r="1.3" stroke="purple" stroke-width="0.1" /><circle cx="81.0715675575" cy="268.853302993" fill="orange" r="1.7" stroke="green" stroke-width="0.1" /><circle cx="53.1273947055" cy="285.031508328" fill="orange" r="1.65" stroke="blue" stroke-width="0.1" /><rect fill="green" height="1.25" stroke="purple" stroke-width="0.1" width="1.25" x="91.6482937864" y="261.743093071" /><circle cx="131.595228196" cy="239.602762623" fill="orange" r="1.9" stroke="blue" stroke-width="0.1" /><circle cx="62.3468215788" cy="279.693945402" fill="orange" r="1.65" stroke="blue" stroke-width="0.1" /><circle cx="84.9525599186" cy="266.606412679" fill="orange" r="1.75" stroke="purple" stroke-width="0.1" /><circle cx="196.505910454" cy="202.022893948" fill="orange" r="1.2" stroke="purple" stroke-width="0.1" /><circle cx="174.275805152" cy="214.892954912" fill="orange" r="1.35" stroke="red" stroke-width="0.1" /><circle cx="81.0543136126" cy="268.863292119" fill="orange" r="1.35" stroke="blue" stroke-width="0.1" /><circle cx="157.627212088" cy="224.531614054" fill="orange" r="1.45" stroke="blue" stroke-width="0.1" /><circle cx="65.1092311905" cy="278.094655627" fill="orange" r="1.7" stroke="purple" stroke-width="0.1" /><rect fill="green" height="1.55" stroke="green" stroke-width="0.1" width="1.55" x="111.218675225" y="250.176030133" /><circle cx="172.851065761" cy="215.717804033" fill="orange" r="1.65" stroke="red" stroke-width="0.1" /><rect fill="green" height="1.45" stroke="green" stroke-width="0.1" width="1.45" x="67.24441417" y="275.713760217" /><circle cx="115.313873165" cy="249.028810273" fill="orange" r="1.4" stroke="green" stroke-width="0.1" /><circle cx="158.989195676" cy="223.74309724" fill="orange" r="1.35" stroke="blue" stroke-width="0.1" /><rect fill="green" height="1.3" stroke="purple" stroke-width="0.1" width="1.3" x="80.2566337927" y="268.298790962" /><circle cx="35.0847311003" cy="295.477260942" fill="orange" r="1.35" stroke="red" stroke-width="0.1" /><circle cx="76.0555932968" cy="271.757288091" fill="orange" r="1.55" stroke="red" stroke-width="0.1" /><rect fill="green" height="1.4" stroke="blue" stroke-width="0.1" width="1.4" x="83.751806187" y="266.196322734" /><circle cx="29.6213009517" cy="298.640299449" fill="orange" r="1.25" stroke="red" stroke-width="0.1" /><rect fill="green" height="1.55" stroke="green" stroke-width="0.1" width="1.55" x="35.8657323335" y="293.801418123" /><circle cx="75.891072636" cy="271.852536895" fill="orange" r="1.55" stroke="green" stroke-width="0.1" /><rect fill="green" height="1.35" stroke="purple" stroke-width="0.1" width="1.35" x="53.9272695811" y="283.5026334" /><circle cx="46.6187706345" cy="288.799659106" fill="orange" r="1.4" stroke="red" stroke-width="0.1" /><rect fill="green" height="1.3" stroke="green" stroke-width="0.1" width="1.3" x="80.0340296529" y="268.427667043" /><rect fill="green" height="1.45" stroke="purple" stroke-width="0.1" width="1.45" x="124.621597371" y="242.495390996" /><circle cx="25.9655864452" cy="300.756765742" fill="orange" r="1.55" stroke="red" stroke-width="0.1" /><rect fill="green" height="1.7" stroke="blue" stroke-width="0.1" width="1.7" x="186.028683985" y="206.746551377" /><circle cx="125.404822904" cy="243.186681477" fill="orange" r="1.6" stroke="blue" stroke-width="0.1" /><rect fill="green" height="1.5" stroke="green" stroke-width="0.1" width="1.5" x="138.375620218" y="234.493061979" /></svg></svg>